<svg width="28" height="29" viewBox="0 0 28 29" fill="none" xmlns="http://www.w3.org/2000/svg">
<path d="M14.2805 28.184C17.4805 28.184 20.0725 27.352 22.4405 25.976C22.6005 25.88 22.7605 25.72 22.7605 25.464C22.7605 25.144 22.5045 24.824 22.1845 24.824C22.0885 24.824 21.9285 24.856 21.8325 24.92C19.5285 26.232 17.3205 26.904 14.2805 26.904C6.7285 26.904 1.3525 21.272 1.3525 14.232C1.3525 7.224 6.7925 1.496 14.0245 1.496C21.2245 1.496 26.6325 6.968 26.6325 12.888C26.6325 17.144 24.8405 19.416 22.5685 19.416C21.0965 19.416 20.2325 18.552 20.2325 17.4C20.2325 17.144 20.2645 16.728 20.3285 16.408L21.5765 9.272C21.8325 7.864 20.8085 6.936 19.7205 6.936C18.6325 6.936 17.8965 7.576 17.7045 8.856V8.888C16.8085 7.672 15.4965 6.712 13.2885 6.712C9.5445 6.712 6.1205 10.232 6.1205 14.744C6.1205 18.552 8.7125 20.92 11.9765 20.92C14.0565 20.92 15.6245 19.992 16.7125 19C17.5125 19.928 19.0165 20.92 21.6085 20.92C25.1285 20.92 27.9765 18.232 27.9765 12.888C27.9765 6.328 21.8645 0.216 14.0245 0.216C6.1845 0.216 0.0085001 6.584 0.0085001 14.232C0.0085001 21.88 6.0885 28.184 14.2805 28.184ZM13.0965 17.624C11.3365 17.624 10.0885 16.504 10.0885 14.52C10.0885 11.96 11.8485 10.008 13.9285 10.008C15.6565 10.008 16.9045 11.192 16.9045 13.016C16.9045 15.64 15.1125 17.624 13.0965 17.624Z" fill="#FCE6D0"/>
</svg>
