<svg width="445" height="522" viewBox="0 0 445 522" fill="none" xmlns="http://www.w3.org/2000/svg">
<path d="M441.331 3.47818H3.48022V518.145H441.331V3.47818Z" fill="#E2829E" stroke="#262626" stroke-width="5" stroke-miterlimit="10"/>
<path d="M441.52 363.973H3.6687V519.107H441.52V363.973Z" fill="#FCE6D0" stroke="#262626" stroke-width="5" stroke-miterlimit="10"/>
<mask id="mask0" mask-type="alpha" maskUnits="userSpaceOnUse" x="18" y="404" width="409" height="69">
<path d="M222.5 472.021C335.369 472.021 426.867 456.932 426.867 438.318C426.867 419.705 335.369 404.615 222.5 404.615C109.631 404.615 18.1332 419.705 18.1332 438.318C18.1332 456.932 109.631 472.021 222.5 472.021Z" fill="#974FC9"/>
</mask>
<g mask="url(#mask0)">
<path d="M222.5 472.021C335.369 472.021 426.867 456.932 426.867 438.318C426.867 419.705 335.369 404.615 222.5 404.615C109.631 404.615 18.1332 419.705 18.1332 438.318C18.1332 456.932 109.631 472.021 222.5 472.021Z" fill="#974FC9"/>
<path d="M222.5 482.925C335.369 482.925 426.867 467.836 426.867 449.222C426.867 430.609 335.369 415.519 222.5 415.519C109.631 415.519 18.1332 430.609 18.1332 449.222C18.1332 467.836 109.631 482.925 222.5 482.925Z" fill="#262626"/>
</g>
<path d="M222.5 472.021C335.369 472.021 426.867 456.932 426.867 438.318C426.867 419.705 335.369 404.615 222.5 404.615C109.631 404.615 18.1332 419.705 18.1332 438.318C18.1332 456.932 109.631 472.021 222.5 472.021Z" stroke="#262626" stroke-width="5" stroke-miterlimit="10"/>
<mask id="mask1" mask-type="alpha" maskUnits="userSpaceOnUse" x="17" y="32" width="410" height="437">
<path d="M426.599 435.176C426.599 453.792 335.1 468.879 222.232 468.879C109.364 468.879 17.8652 453.792 17.8652 435.176C17.8652 416.56 18.3613 32.7206 222.232 32.7206C399.317 32.7206 426.599 416.56 426.599 435.176Z" fill="white"/>
</mask>
<g mask="url(#mask1)">
<path d="M319.426 320.627C322.511 296.143 312.848 271.252 292.461 253.865C295.001 247.908 297.164 240.781 298.443 233.971C302.332 213.233 298.324 195.083 289.485 193.428C280.646 191.772 270.328 207.236 266.439 227.973C265.705 231.899 265.457 235.2 265.576 238.065C253.185 233.306 238.84 230.58 222.728 230.58C206.617 230.58 192.272 233.306 179.881 238.065C180 235.2 179.752 231.889 179.018 227.973C175.129 207.236 164.811 191.772 155.972 193.428C147.132 195.083 143.124 213.233 147.013 233.971C148.293 240.781 150.456 247.918 152.996 253.865C132.608 271.252 122.946 296.143 126.031 320.627C92.2807 372.887 76.7052 444.883 83.0743 486.962C92.4593 548.976 154.494 572.965 222.728 572.965C290.963 572.965 352.997 548.976 362.382 486.962C368.751 444.883 353.176 372.877 319.426 320.627Z" fill="#EF5123" stroke="#262626" stroke-width="5" stroke-miterlimit="10"/>
<path d="M230.07 289.482H215.407C214.96 289.482 214.603 289.125 214.603 288.679C214.603 288.233 214.96 287.876 215.407 287.876H230.07C230.516 287.876 230.873 288.233 230.873 288.679C230.873 289.115 230.506 289.482 230.07 289.482Z" fill="#FCE6D0" stroke="#262626" stroke-width="5" stroke-miterlimit="10"/>
<path d="M301.37 290.592C301.37 290.592 296.856 296.45 287.987 301.595C287.987 301.595 298.523 301.357 301.37 290.592Z" fill="#FCE6D0" stroke="#262626" stroke-width="5" stroke-miterlimit="10" stroke-linejoin="round"/>
<path d="M299.475 300.693C299.475 300.693 297.074 304.143 292.183 307.305C292.183 307.295 298.146 306.869 299.475 300.693Z" fill="#FCE6D0" stroke="#262626" stroke-width="5" stroke-miterlimit="10" stroke-linejoin="round"/>
<path d="M144.097 290.592C144.097 290.592 148.611 296.45 157.48 301.595C157.48 301.595 146.954 301.357 144.097 290.592Z" fill="#FCE6D0" stroke="#262626" stroke-width="5" stroke-miterlimit="10" stroke-linejoin="round"/>
<path d="M146.001 300.693C146.001 300.693 148.402 304.143 153.293 307.305C153.293 307.295 147.321 306.869 146.001 300.693Z" fill="#FCE6D0" stroke="#262626" stroke-width="5" stroke-miterlimit="10" stroke-linejoin="round"/>
<path d="M269.455 290.503C278.112 290.503 285.13 283.491 285.13 274.841C285.13 266.191 278.112 259.179 269.455 259.179C260.798 259.179 253.78 266.191 253.78 274.841C253.78 283.491 260.798 290.503 269.455 290.503Z" fill="#FCE6D0" stroke="#262626" stroke-width="5" stroke-miterlimit="10"/>
<path d="M271.012 259.991C271.012 259.991 265.556 265.523 265.308 273.661C265.06 281.789 269.663 291.444 269.663 291.444L282.659 285.427L286.32 275.207L282.58 263.411L271.628 258.861L271.012 259.991Z" fill="#262626"/>
<path d="M273.77 274.335L262.679 279.549V270.628L273.77 274.335Z" fill="#FCE6D0"/>
<path d="M173.224 290.503C181.881 290.503 188.899 283.491 188.899 274.841C188.899 266.191 181.881 259.179 173.224 259.179C164.567 259.179 157.549 266.191 157.549 274.841C157.549 283.491 164.567 290.503 173.224 290.503Z" fill="#FCE6D0" stroke="#262626" stroke-width="5" stroke-miterlimit="10"/>
<path d="M174.781 259.991C174.781 259.991 169.325 265.523 169.077 273.661C168.829 281.789 173.432 291.444 173.432 291.444L186.428 285.427L190.089 275.207L186.349 263.411L175.397 258.861L174.781 259.991Z" fill="#262626"/>
<path d="M177.539 274.335L166.448 279.549V270.628L177.539 274.335Z" fill="#FCE6D0"/>
</g>
</svg>
