<svg width="161" height="161" viewBox="0 0 161 161" fill="none" xmlns="http://www.w3.org/2000/svg">
<path d="M138 3H23C11.9543 3 3 11.9543 3 23V138C3 149.046 11.9543 158 23 158H138C149.046 158 158 149.046 158 138V23C158 11.9543 149.046 3 138 3Z" fill="#974FC9" stroke="black" stroke-width="5" stroke-miterlimit="10"/>
<path d="M80.77 135.46C111.549 135.46 136.5 110.509 136.5 79.73C136.5 48.9512 111.549 24 80.77 24C49.9912 24 25.04 48.9512 25.04 79.73C25.04 110.509 49.9912 135.46 80.77 135.46Z" fill="#FCE6D0" stroke="#262626" stroke-width="5" stroke-miterlimit="10"/>
<path d="M80.7699 110.07C97.5262 110.07 111.11 96.4863 111.11 79.73C111.11 62.9737 97.5262 49.39 80.7699 49.39C64.0136 49.39 50.4299 62.9737 50.4299 79.73C50.4299 96.4863 64.0136 110.07 80.7699 110.07Z" fill="#EF5123" stroke="#262626" stroke-width="5" stroke-miterlimit="10"/>
<path d="M56.5901 72.51C59.6901 62.09 69.3401 54.5 80.7701 54.5" stroke="#FCE6D0" stroke-width="5" stroke-miterlimit="10" stroke-linecap="round"/>
</svg>
