<svg width="30" height="30" viewBox="0 0 30 30" fill="none" xmlns="http://www.w3.org/2000/svg">
<path d="M23.7627 0H6.24818C2.79753 0 0 2.79753 0 6.24819V23.7518C0 27.2025 2.79753 30 6.24818 30H23.7518C27.2024 30 30 27.2025 30 23.7518V6.24819C30.0109 2.79753 27.2133 0 23.7627 0ZM20.0072 8.75181H17.6016C16.8287 8.75181 16.2518 9.06749 16.2518 9.86212V11.2554H20.0072L19.7133 15.0109H16.2627V25.0145H12.5072V15.0109H10.0036V11.2554H12.5072V8.84978C12.5072 6.32438 13.8353 4.99637 16.8396 4.99637H20.0181V8.75181H20.0072Z" fill="#FCE6D0"/>
</svg>
