<svg width="29" height="30" viewBox="0 0 29 30" fill="none" xmlns="http://www.w3.org/2000/svg">
<path d="M14.5105 2.70947C18.3828 2.70947 18.8458 2.72035 20.3716 2.79652C24.307 2.9815 26.1379 4.90751 26.3168 8.94451C26.3904 10.5223 26.4009 11.0011 26.4009 15.0054C26.4009 19.0098 26.3904 19.4886 26.3168 21.0664C26.1379 25.1034 24.307 27.0294 20.3716 27.2144C18.8458 27.2905 18.3828 27.3014 14.5105 27.3014C10.6382 27.3014 10.1753 27.2905 8.64949 27.2144C4.70356 27.0294 2.88316 25.0925 2.70428 21.0664C2.63062 19.4886 2.6201 19.0098 2.6201 15.0054C2.6201 11.0011 2.63062 10.5223 2.70428 8.94451C2.88316 4.90751 4.71408 2.9815 8.64949 2.79652C10.1753 2.72035 10.6382 2.70947 14.5105 2.70947ZM14.5105 0C10.5646 0 10.07 0.0217628 8.52322 0.0870511C3.26197 0.337323 0.326197 3.36235 0.08418 8.81393C0.021045 10.4135 0 10.9249 0 15.0054C0 19.086 0.021045 19.5865 0.08418 21.1861C0.326197 26.6376 3.25145 29.6627 8.52322 29.9129C10.07 29.9891 10.5646 30 14.5 30C18.4354 30 18.93 29.9782 20.4768 29.9129C25.738 29.6627 28.6738 26.6376 28.9158 21.1861C28.9895 19.5865 29 19.0751 29 15.0054C29 10.9358 28.979 10.4244 28.9158 8.82481C28.6738 3.38411 25.7485 0.348205 20.4768 0.0979325C18.9405 0.0217628 18.4459 0 14.5105 0ZM14.5105 7.30141C10.3962 7.30141 7.0606 10.7508 7.0606 15.0054C7.0606 19.2601 10.3962 22.7095 14.5105 22.7095C18.6248 22.7095 21.9605 19.2601 21.9605 15.0054C21.9605 10.7508 18.6248 7.30141 14.5105 7.30141ZM14.5105 20C11.8378 20 9.67017 17.7584 9.67017 14.9946C9.67017 12.2307 11.8378 9.98912 14.5105 9.98912C17.1832 9.98912 19.3509 12.2307 19.3509 14.9946C19.3403 17.7693 17.1727 20 14.5105 20ZM22.2551 5.19042C21.2975 5.19042 20.5083 5.99565 20.5083 6.98585C20.5083 7.97606 21.287 8.78128 22.2551 8.78128C23.2126 8.78128 23.9913 7.97606 23.9913 6.98585C23.9913 5.99565 23.2126 5.19042 22.2551 5.19042Z" fill="#FCE6D0"/>
</svg>
