<svg width="444" height="522" viewBox="0 0 444 522" fill="none" xmlns="http://www.w3.org/2000/svg">
<path d="M440.812 3H3V518.037H440.812V3Z" fill="#EF5123" stroke="#262626" stroke-width="5" stroke-miterlimit="10"/>
<path d="M441 404.416H3.18842V518.99H441V404.416Z" fill="#E2829E" stroke="#262626" stroke-width="5" stroke-miterlimit="10"/>
<mask id="mask0" mask-type="alpha" maskUnits="userSpaceOnUse" x="0" y="0" width="444" height="521">
<path d="M440.812 3H3V518.037H440.812V3Z" fill="#EF5123" stroke="#262626" stroke-width="5" stroke-miterlimit="10"/>
</mask>
<g mask="url(#mask0)">
<path d="M33.4738 271.986C-12.4253 198.659 33.5135 139.884 106.841 93.9946C180.168 48.1055 253.109 32.4619 298.998 105.789C344.887 179.117 322.657 275.756 249.339 321.645C176.022 367.534 79.3629 345.313 33.4738 271.986Z" fill="#FCE6D0" stroke="#262626" stroke-width="5" stroke-miterlimit="10"/>
<path d="M83.1225 143.008C83.1225 143.008 4.99393 165.586 -18.1986 104.5C-18.1986 104.5 -23.0494 84.2235 3.09924 75.2759C29.238 66.3282 83.1225 143.008 83.1225 143.008Z" fill="#FCE6D0" stroke="#262626" stroke-width="5" stroke-miterlimit="10"/>
<path d="M34.7435 80.8707C0.331614 109.856 -5.89804 129.785 -5.89804 129.785L-13.6653 123.853C-13.6653 123.853 -7.44554 103.934 26.9763 74.9386L34.7435 80.8707Z" fill="#974FC9" stroke="#262626" stroke-width="5" stroke-miterlimit="10"/>
<path d="M149.804 101.276C149.804 101.276 204.254 40.8739 159.436 -6.69167C159.436 -6.69167 143.326 -19.9148 123.843 -0.313219C104.361 19.2884 149.804 101.276 149.804 101.276Z" fill="#FCE6D0" stroke="#262626" stroke-width="5" stroke-miterlimit="10"/>
<path d="M115.045 30.6069C156.162 12.3246 176.795 15.4296 176.795 15.4296L174.851 5.847C174.851 5.847 154.218 2.74209 113.1 21.0243L115.045 30.6069Z" fill="#974FC9" stroke="#262626" stroke-width="5" stroke-miterlimit="10"/>
<path d="M-4.40015 80.8707C44.1078 158.364 89.2033 161.916 127.206 138.128C165.209 114.34 181.726 72.2206 133.218 -5.27313C129.279 -11.5623 124.617 -16.2345 119.36 -19.5081C116.909 -26.4321 110.66 -38.2764 95.0362 -57.1836C84.5807 -69.8413 63.1836 -70.3869 47.4409 -58.2648C47.173 -58.0565 46.8953 -57.8482 46.6274 -57.63C35.7057 -49.0096 30.1506 -36.0246 32.6504 -24.6168C33.6821 -19.895 35.428 -14.8458 38.3345 -10.2033C39.2967 -8.66571 40.12 -7.27693 40.8243 -6.01711C39.9018 -5.45168 38.9793 -4.88625 38.0468 -4.3109C37.1243 -3.73555 36.2116 -3.15028 35.299 -2.56501C34.4757 -3.75539 33.5829 -5.09457 32.6207 -6.63214C29.7141 -11.2647 25.9347 -15.0442 22.1453 -18.0399C12.9695 -25.2715 -1.13652 -25.946 -13.6653 -19.895C-13.9728 -19.7462 -14.2902 -19.5974 -14.5878 -19.4386C-32.3641 -10.5802 -41.2225 8.90231 -34.4076 23.8416C-33.4752 25.895 -32.5526 27.8393 -31.6598 29.7042C-22.8014 48.0956 -15.8377 57.44 -11.1556 62.1817C-10.5008 68.3419 -8.33832 74.5815 -4.40015 80.8707Z" fill="#FCE6D0" stroke="#262626" stroke-width="5" stroke-miterlimit="10"/>
<path d="M96.3952 271.589C97.2979 279.376 101.762 309.106 118.209 323.43C118.209 323.43 150.032 310.406 153.236 277.224C172.153 274.774 191.219 268.137 208.906 257.077C228.269 244.955 243.576 229.023 254.24 211.227C264.755 212.715 290.745 214.967 307.33 204.283C307.33 204.283 303.591 169.266 271.579 157.333C273.087 135.757 268.306 114.181 256.442 95.2346C223.637 42.8182 168.522 61.2393 109.45 98.2105C50.3771 135.182 9.74553 176.686 42.5504 229.103C55.3172 249.488 74.3831 263.832 96.3952 271.589Z" fill="#E2829E" stroke="#262626" stroke-width="5" stroke-miterlimit="10"/>
<path d="M27.5417 -13.1396C-18.0399 9.06101 -31.6598 29.7042 -31.6598 29.7042L-37.3736 20.5779C-37.3736 20.5779 -23.7537 -0.0652332 21.8279 -22.2658L27.5417 -13.1396Z" fill="#974FC9" stroke="#262626" stroke-width="5" stroke-miterlimit="10"/>
<path d="M51.4187 85.0568L80.1366 67.0821C81.0592 66.5067 82.2793 66.7845 82.8547 67.707L87.7352 75.504C88.3106 76.4266 88.0328 77.6467 87.1103 78.2221L58.3924 96.1968C57.4698 96.7721 56.2497 96.4944 55.6743 95.5718L50.7938 87.7749C50.2184 86.8523 50.4962 85.6421 51.4187 85.0568Z" fill="#974FC9" stroke="#262626" stroke-width="5" stroke-miterlimit="10"/>
<path d="M40.5962 67.7566L69.3141 49.7819C70.2366 49.2066 71.4568 49.4843 72.0321 50.4069L76.9127 58.2038C77.488 59.1264 77.2103 60.3465 76.2877 60.9219L47.5698 78.8966C46.6473 79.472 45.4271 79.1942 44.8518 78.2717L39.9712 70.4747C39.386 69.5521 39.6736 68.332 40.5962 67.7566Z" fill="#974FC9" stroke="#262626" stroke-width="5" stroke-miterlimit="10"/>
<path d="M106.464 53.234C110.288 53.234 113.388 50.134 113.388 46.31C113.388 42.4859 110.288 39.3859 106.464 39.3859C102.64 39.3859 99.5398 42.4859 99.5398 46.31C99.5398 50.134 102.64 53.234 106.464 53.234Z" fill="#974FC9" stroke="#262626" stroke-width="5" stroke-miterlimit="10"/>
<path d="M125.579 257.83C125.579 257.83 130.817 246.195 155.944 263.276C181.071 280.358 132.394 272.74 132.394 272.74L121.423 268.782L125.579 257.83Z" fill="#E2829E" stroke="#262626" stroke-width="5" stroke-miterlimit="10"/>
<path d="M165.259 262.126C165.259 262.126 201.486 241.979 199.69 255.489C197.905 269.01 172.58 274.317 172.58 274.317C172.58 274.317 157.263 271.242 165.259 262.126Z" fill="#E2829E"/>
<path d="M165.259 262.126C165.259 262.126 201.486 241.979 199.69 255.489C197.905 269.01 172.58 274.317 172.58 274.317C172.58 274.317 157.263 271.242 165.259 262.126Z" stroke="#262626" stroke-width="5" stroke-miterlimit="10"/>
<path d="M159.823 277.273C159.823 277.273 118.943 299.414 117.683 284.356C116.85 274.416 125.292 257.325 125.014 258.753C122.881 270.072 156.41 263.217 156.41 263.217C156.41 263.217 168.443 268.217 159.823 277.273Z" fill="#E2829E"/>
<path d="M159.823 277.273C159.823 277.273 118.943 299.414 117.683 284.356C116.85 274.416 125.292 257.325 125.014 258.753C122.881 270.072 156.41 263.217 156.41 263.217C156.41 263.217 168.443 268.217 159.823 277.273Z" stroke="#262626" stroke-width="5" stroke-miterlimit="10"/>
<path d="M166.429 262.84C166.429 262.84 194.8 267.909 198.837 257.454C202.428 248.149 191.586 279.773 190.108 281.281C182.063 289.465 164.902 277.234 164.902 277.234C164.902 277.234 155.259 268.465 166.429 262.84Z" fill="#E2829E"/>
<path d="M166.429 262.84C166.429 262.84 194.8 267.909 198.837 257.454C202.428 248.149 191.586 279.773 190.108 281.281C182.063 289.465 164.902 277.234 164.902 277.234C164.902 277.234 155.259 268.465 166.429 262.84Z" stroke="#262626" stroke-width="5" stroke-miterlimit="10"/>
<path d="M125.579 257.83C125.579 257.83 130.817 246.195 155.944 263.276C181.071 280.358 132.394 272.74 132.394 272.74L121.423 268.782L125.579 257.83Z" fill="#974FC9"/>
<path d="M125.579 257.83C125.579 257.83 130.817 246.195 155.944 263.276C181.071 280.358 132.394 272.74 132.394 272.74L121.423 268.782L125.579 257.83Z" stroke="#262626" stroke-width="5" stroke-miterlimit="10"/>
<path d="M165.259 262.126C165.259 262.126 201.486 241.979 199.69 255.489C197.905 269.01 172.58 274.317 172.58 274.317C172.58 274.317 157.263 271.242 165.259 262.126Z" fill="#974FC9" stroke="#262626" stroke-width="5" stroke-miterlimit="10"/>
<path d="M156.113 279.178C156.936 279.545 157.878 279.783 158.92 279.872C161.469 280.081 163.959 279.327 166.022 277.978C169.951 280.507 183.293 288.215 190.108 281.281C191.586 279.773 202.428 248.149 198.837 257.454C195.316 266.57 173.274 263.882 167.709 263.048C166.409 262.275 164.822 261.848 163.106 261.898C161.132 261.947 159.148 262.622 157.402 263.703C156.817 263.386 156.42 263.217 156.42 263.217C156.42 263.217 122.891 270.062 125.024 258.753C125.292 257.325 116.86 274.416 117.693 284.356C118.715 296.617 146.024 284.197 156.113 279.178Z" fill="#974FC9" stroke="#262626" stroke-width="5" stroke-miterlimit="10"/>
<path d="M152.442 269.595C153.98 265.25 158.593 261.997 163.106 261.888C167.878 261.769 171.597 265.151 171.131 270.002C170.586 275.587 164.911 280.358 158.93 279.862C153.345 279.406 150.686 274.535 152.442 269.595Z" fill="#974FC9"/>
<path d="M152.442 269.595C153.98 265.25 158.593 261.997 163.106 261.888C167.878 261.769 171.597 265.151 171.131 270.002C170.586 275.587 164.911 280.358 158.93 279.862C153.345 279.406 150.686 274.535 152.442 269.595Z" stroke="#262626" stroke-width="5" stroke-miterlimit="10"/>
<path d="M100.78 199.264C108.62 199.264 114.975 192.908 114.975 185.069C114.975 177.229 108.62 170.873 100.78 170.873C92.94 170.873 86.5845 177.229 86.5845 185.069C86.5845 192.908 92.94 199.264 100.78 199.264Z" fill="#FCE6D0" stroke="#262626" stroke-width="5" stroke-miterlimit="10"/>
<path d="M106.722 197.23C106.722 197.23 108.249 190.356 104.529 183.987C100.81 177.619 92.6257 172.421 92.6257 172.421L85.5429 183.293L87.6459 192.895L96.1968 200.167L106.791 198.401L106.722 197.23Z" fill="#262626"/>
<path d="M97.7146 187.529L103.716 178.194L108.011 185.049L97.7146 187.529Z" fill="#FCE6D0"/>
<path d="M106.781 231.96C111.86 231.96 115.977 227.843 115.977 222.764C115.977 217.685 111.86 213.568 106.781 213.568C101.703 213.568 97.5856 217.685 97.5856 222.764C97.5856 227.843 101.703 231.96 106.781 231.96Z" fill="#FCE6D0" stroke="#262626" stroke-width="5" stroke-miterlimit="10"/>
<path d="M110.63 230.64C110.63 230.64 111.622 226.186 109.212 222.06C106.801 217.933 101.504 214.56 101.504 214.56L96.9111 221.603L98.28 227.833L103.825 232.545L110.69 231.404L110.63 230.64Z" fill="#262626"/>
<path d="M104.797 224.361L108.686 218.31L111.463 222.754L104.797 224.361Z" fill="#FCE6D0"/>
<path d="M223.29 159.039C228.368 159.039 232.485 154.922 232.485 149.843C232.485 144.765 228.368 140.648 223.29 140.648C218.211 140.648 214.094 144.765 214.094 149.843C214.094 154.922 218.211 159.039 223.29 159.039Z" fill="#FCE6D0" stroke="#262626" stroke-width="5" stroke-miterlimit="10"/>
<path d="M227.139 157.72C227.139 157.72 228.131 153.266 225.72 149.139C223.31 145.012 218.012 141.64 218.012 141.64L213.419 148.683L214.788 154.912L220.334 159.624L227.198 158.483L227.139 157.72Z" fill="#262626"/>
<path d="M221.296 151.44L225.184 145.389L227.972 149.833L221.296 151.44Z" fill="#FCE6D0"/>
<path d="M190.624 143.018C198.464 143.018 204.819 136.663 204.819 128.823C204.819 120.983 198.464 114.628 190.624 114.628C182.784 114.628 176.428 120.983 176.428 128.823C176.428 136.663 182.784 143.018 190.624 143.018Z" fill="#FCE6D0" stroke="#262626" stroke-width="5" stroke-miterlimit="10"/>
<path d="M196.566 140.985C196.566 140.985 198.093 134.11 194.373 127.742C190.653 121.373 182.47 116.175 182.47 116.175L175.387 127.047L177.49 136.65L186.041 143.921L196.635 142.155L196.566 140.985Z" fill="#262626"/>
<path d="M187.558 131.293L193.56 121.959L197.855 128.813L187.558 131.293Z" fill="#FCE6D0"/>
<path d="M286.806 238.884C282.422 236.791 283.731 224.867 289.743 212.239C295.754 199.611 301.865 176.111 306.705 176.597C311.546 177.083 311.646 207.17 305.634 219.798C299.623 232.426 291.191 240.977 286.806 238.884Z" fill="#EF5123" stroke="#262626" stroke-width="5" stroke-miterlimit="10"/>
<path d="M143.088 153.434L136.243 157.601C130.946 160.824 124.151 157.095 124.012 150.905C123.794 141.153 134.21 134.815 142.77 139.497C148.206 142.473 148.385 150.22 143.088 153.434Z" fill="#FCE6D0" stroke="#262626" stroke-width="5" stroke-miterlimit="10"/>
<path d="M143.088 153.434L136.243 157.601C130.946 160.824 124.151 157.095 124.012 150.905C123.794 141.153 134.21 134.815 142.77 139.497C148.206 142.473 148.385 150.22 143.088 153.434Z" fill="#FCE6D0"/>
<path d="M143.088 153.434L136.243 157.601C130.946 160.824 124.151 157.095 124.012 150.905C123.794 141.153 134.21 134.815 142.77 139.497C148.206 142.473 148.385 150.22 143.088 153.434Z" stroke="#262626" stroke-width="5" stroke-miterlimit="10"/>
<path d="M177.609 488.87C279.647 488.87 362.366 476.101 362.366 460.35C362.366 444.599 279.647 431.831 177.609 431.831C75.5705 431.831 -7.14796 444.599 -7.14796 460.35C-7.14796 476.101 75.5705 488.87 177.609 488.87Z" fill="#262626"/>
</g>
<path d="M440.812 3H3V518.037H440.812V3Z" stroke="#262626" stroke-width="5" stroke-miterlimit="10"/>
</svg>
