<svg width="916" height="732" viewBox="0 0 916 732" fill="none" xmlns="http://www.w3.org/2000/svg">
<path d="M913 3H3V729H913V3Z" fill="#EF5123" stroke="#262626" stroke-width="5" stroke-miterlimit="10"/>
<g clip-path="url(#clip0)">
<path d="M884.663 546.5H30.3372V727.5H884.663V546.5Z" fill="#FCE6D0" stroke="#262626" stroke-width="5" stroke-miterlimit="10"/>
</g>
<mask id="mask0" mask-type="alpha" maskUnits="userSpaceOnUse" x="3" y="3" width="214" height="726">
<path d="M216.37 3C99.74 81.47 23 214.69 23 365.83C23 516.97 99.73 650.19 216.37 728.66H3V3H216.37Z" fill="#C4C4C4"/>
</mask>
<g mask="url(#mask0)">
<path d="M310.87 -33.67H-41.13V771.33H310.87V-33.67Z" fill="#974FC9" stroke="#262626" stroke-width="5" stroke-miterlimit="10"/>
<path d="M225.87 151.31C218.11 155.16 210.13 154.35 202.23 152.07C192.88 149.38 183.73 145.97 174.31 143.54C168.24 141.97 161.88 141.33 155.6 140.76C146.78 139.96 139.6 135.96 133.51 129.94C125.06 121.59 119.33 111.69 117.39 99.8C114.93 84.77 122.81 73.99 137.85 71.65C145.86 70.4 153.79 71.07 161.69 72.39C168.99 73.61 175.81 72.32 182.38 69.11C186.49 67.1 190.54 64.95 194.75 63.2C203.75 59.44 219.9 63.02 224.2 76.51C224.63 77.87 225.3 79.15 225.86 80.47C225.87 104.07 225.87 127.69 225.87 151.31Z" fill="#262626"/>
<path d="M225.87 42.4C214.42 38.09 202.53 35.65 190.5 33.56C176.61 31.15 163.61 26.29 152.57 17.16C145.73 11.5 140.46 4.70999 138.59 -4.20001C136.03 -16.38 141.72 -26.9 153.37 -31.35C159.09 -33.53 165.42 -34.47 170.68 -37.4C181.63 -43.5 192.15 -50.4 202.65 -57.28C210.55 -62.45 218.15 -68.1 225.88 -73.54C225.87 -34.89 225.87 3.74999 225.87 42.4Z" fill="#262626"/>
<path d="M191.91 436.45C188.55 433.86 184.74 431.68 181.94 428.59C176.06 422.1 177.77 413.08 185.56 408.96C188.56 407.38 192.24 405.97 195.49 406.18C205.6 406.84 214.14 403.27 222.3 398C223.44 397.27 224.68 396.7 225.87 396.05C225.87 409.52 225.87 422.98 225.87 436.45C214.55 436.45 203.23 436.45 191.91 436.45Z" fill="#262626"/>
<path d="M83.59 436.45C87.28 426.86 97.55 419.89 108.21 419.75C118.48 419.61 128.56 420.72 138.62 422.99C146.28 424.72 153.41 427.11 159.48 432.14C161.04 433.43 162.37 435 163.81 436.44C137.07 436.45 110.33 436.45 83.59 436.45Z" fill="#262626"/>
<path d="M225.87 318.18C213.93 311.19 208.33 298.83 211.03 285.54C213.27 274.53 217.78 264.7 225.87 256.7C225.87 277.19 225.87 297.69 225.87 318.18Z" fill="#262626"/>
<path d="M225.87 212.2C219.25 203.99 215.85 194.68 216.45 184.09C216.8 177.95 219.76 173.62 225.87 171.8C225.87 185.27 225.87 198.73 225.87 212.2Z" fill="#262626"/>
<path d="M5.19992 249.44C4.26992 234.67 8.82992 221.18 14.7099 207.97C21.8799 191.85 30.4999 176.64 42.7399 163.76C52.6199 153.37 63.9999 145.25 78.6499 143.46C90.1199 142.06 101.44 143.34 112.17 147.96C117.68 150.33 121.91 154.42 125.53 159.07C133.59 169.41 143.36 177.69 154.24 185.02C166.26 193.12 177.81 201.95 189.26 210.86C194.73 215.12 199.1 220.6 202.01 227.04C204.92 233.48 204.96 240.06 200.59 245.62C191.66 256.98 190.88 269.91 192.22 283.37C193.35 294.71 194.93 306 196.02 317.34C197.31 330.84 193.9 343.43 187.86 355.4C182.35 366.3 175.34 376.05 165.86 383.89C147.95 398.71 127.57 400.56 107.07 389.61C92.4699 381.81 82.7799 370.15 77.6199 354.49C75.9199 349.32 74.0399 344.18 71.7299 339.27C68.9899 333.46 63.8299 329.99 57.5999 330.64C39.0599 332.59 28.4599 322.18 20.3999 307.72C10.9799 290.82 6.62992 272.43 5.41992 253.23C5.33992 251.96 5.26992 250.7 5.19992 249.44Z" fill="#262626"/>
<path d="M-71.6801 46.19C-71.6601 31.14 -59.5201 20.12 -45.5101 21.81C-25.3701 24.24 -8.99006 17.23 4.43994 2.62C7.03994 -0.209999 8.90995 -3.73 10.95 -7.04C19.3299 -20.61 29.74 -32.17 43.85 -39.97C58.73 -48.19 73.5599 -48.41 88.1099 -39.06C104.89 -28.27 115.61 -13.33 118.45 6.64C120.22 19.06 118.06 31.17 113.78 42.83C103.61 70.57 86.7099 93.35 62.6699 110.64C55.0199 116.14 46.6399 120.27 37.0199 121.15C31.0299 121.7 25.3999 120.45 21.0099 116.27C8.92995 104.78 -5.46005 97.67 -21.1501 92.6C-36.8801 87.52 -50.7401 79.16 -62.0701 66.98C-67.8001 60.84 -71.5201 53.68 -71.6801 46.19Z" fill="#262626"/>
<path d="M-31.77 194.24C-44.17 193.92 -53.62 189.94 -62.55 184.53C-71.37 179.18 -79.44 172.87 -85.27 164.23C-87.06 161.57 -88.56 158.29 -88.87 155.17C-89.27 151.16 -86.54 147.96 -82.87 146.64C-77.04 144.55 -71.07 142.46 -64.99 141.57C-54.88 140.1 -45.59 137.04 -36.94 131.55C-29.78 127 -22.11 123.54 -13.61 121.89C2.17999 118.81 12.39 131.83 11.22 145.74C10.87 149.93 9.59 153.84 6.81001 157C0.830002 163.79 -3.69 171.49 -7.78001 179.49C-10.94 185.67 -15.16 190.83 -22.26 192.59C-25.92 193.5 -29.71 193.9 -31.77 194.24Z" fill="#262626"/>
<path d="M38.12 401.66C31.13 400.99 24.58 402.76 18.15 405.15C11.66 407.56 5.07997 408.9 -1.85003 407.09C-8.99003 405.22 -11.12 401.16 -6.95004 395.11C-2.50004 388.66 2.96996 382.91 7.99996 376.87C8.24996 376.57 8.58997 376.35 8.81997 376.04C18.62 362.81 32.16 361.53 46.88 364.21C51.56 365.06 56.2 366.16 60.83 367.27C68.42 369.1 71.62 374.49 69.15 382.01C65.65 392.64 57.6 398.27 47.08 400.69C44.17 401.35 41.11 401.35 38.12 401.66Z" fill="#262626"/>
<path d="M225.87 690.31C218.11 694.16 210.13 693.35 202.23 691.07C192.88 688.38 183.73 684.97 174.31 682.54C168.24 680.97 161.88 680.33 155.6 679.76C146.78 678.96 139.6 674.96 133.51 668.94C125.06 660.59 119.33 650.69 117.39 638.8C114.93 623.77 122.81 612.99 137.85 610.65C145.86 609.4 153.79 610.07 161.69 611.39C168.99 612.61 175.81 611.32 182.38 608.11C186.49 606.1 190.54 603.95 194.75 602.19C203.75 598.43 219.9 602.01 224.2 615.5C224.63 616.86 225.3 618.14 225.86 619.46C225.87 643.07 225.87 666.69 225.87 690.31Z" fill="#262626"/>
<path d="M225.87 581.4C214.42 577.09 202.53 574.65 190.5 572.56C176.61 570.15 163.61 565.29 152.57 556.16C145.73 550.5 140.46 543.71 138.59 534.8C136.03 522.62 141.72 512.1 153.37 507.65C159.09 505.47 165.42 504.53 170.68 501.6C181.63 495.5 192.15 488.6 202.65 481.72C210.55 476.55 218.15 470.9 225.88 465.46C225.87 504.11 225.87 542.75 225.87 581.4Z" fill="#262626"/>
<path d="M165.56 419.21C173.01 428.65 177.85 439.45 182 450.61C182.71 452.52 183.4 454.46 183.8 456.45C185.55 465.1 182.12 471.56 173.91 474.96C166.26 478.12 158.2 478.5 150.06 478.13C136.56 477.53 125.33 471.72 115.46 462.9C110.67 458.61 106.1 454.07 101.21 449.9C97.5899 446.81 93.7399 443.95 89.7599 441.34C81.8999 436.17 79.2699 427.95 82.9899 419.21C110.52 419.21 138.04 419.21 165.56 419.21Z" fill="#262626"/>
<path d="M225.87 751.2C219.25 742.99 215.85 733.68 216.45 723.09C216.8 716.95 219.76 712.62 225.87 710.8C225.87 724.27 225.87 737.73 225.87 751.2Z" fill="#262626"/>
<path d="M5.19992 788.44C4.26992 773.67 8.82992 760.18 14.7099 746.97C21.8799 730.85 30.4999 715.64 42.7399 702.76C52.6199 692.37 63.9999 684.25 78.6499 682.46C90.1199 681.06 101.44 682.34 112.17 686.96C117.68 689.33 121.91 693.42 125.53 698.07C133.59 708.41 143.36 716.69 154.24 724.02C166.26 732.12 177.81 740.95 189.26 749.86C194.73 754.12 199.1 759.6 202.01 766.04C204.92 772.48 204.96 779.06 200.59 784.62C191.66 795.98 190.88 808.91 192.22 822.37C193.35 833.71 194.93 845 196.02 856.34C197.31 869.84 193.9 882.43 187.86 894.4C182.35 905.3 175.34 915.05 165.86 922.89C147.95 937.71 127.57 939.56 107.07 928.61C92.4699 920.81 82.7799 909.15 77.6199 893.49C75.9199 888.32 74.0399 883.18 71.7299 878.27C68.9899 872.46 63.8299 868.99 57.5999 869.64C39.0599 871.59 28.4599 861.18 20.3999 846.72C10.9799 829.82 6.62992 811.43 5.41992 792.23C5.33992 790.96 5.26992 789.7 5.19992 788.44Z" fill="#262626"/>
<path d="M-71.6801 585.19C-71.6601 570.14 -59.5201 559.12 -45.5101 560.81C-25.3701 563.24 -8.99006 556.23 4.43994 541.62C7.03994 538.79 8.90995 535.27 10.95 531.96C19.3299 518.39 29.74 506.83 43.85 499.03C58.73 490.81 73.5599 490.59 88.1099 499.94C104.89 510.73 115.61 525.67 118.45 545.64C120.22 558.06 118.06 570.17 113.78 581.83C103.61 609.57 86.7099 632.35 62.6699 649.64C55.0199 655.14 46.6399 659.27 37.0199 660.15C31.0299 660.7 25.3999 659.45 21.0099 655.27C8.92995 643.78 -5.46005 636.67 -21.1501 631.6C-36.8801 626.52 -50.7401 618.16 -62.0701 605.98C-67.8001 599.84 -71.5201 592.68 -71.6801 585.19Z" fill="#262626"/>
<path d="M-31.77 733.24C-44.17 732.92 -53.62 728.94 -62.55 723.53C-71.37 718.18 -79.44 711.87 -85.27 703.23C-87.06 700.57 -88.56 697.29 -88.87 694.17C-89.27 690.16 -86.54 686.96 -82.87 685.64C-77.04 683.55 -71.07 681.46 -64.99 680.57C-54.88 679.1 -45.59 676.04 -36.94 670.55C-29.78 666 -22.11 662.54 -13.61 660.89C2.17999 657.81 12.39 670.83 11.22 684.74C10.87 688.93 9.59 692.84 6.81001 696C0.830002 702.79 -3.69 710.49 -7.78001 718.49C-10.94 724.67 -15.16 729.83 -22.26 731.59C-25.92 732.5 -29.71 732.9 -31.77 733.24Z" fill="#262626"/>
<path d="M39.5 423.89C50.15 423.89 56.27 428.4 58.64 437.67C61.33 448.21 62.05 458.84 58.38 469.34C55.64 477.19 50.13 480.34 42.03 478.99C28.4 476.71 13.4 461.45 11.35 447.78C10.62 442.91 12.11 438.68 15.36 435.15C22.12 427.8 30.76 424.51 39.5 423.89Z" fill="#262626"/>
</g>
<path d="M216.37 3C99.74 81.47 23 214.69 23 365.83C23 516.97 99.73 650.19 216.37 728.66H3V3H216.37Z" stroke="#262626" stroke-width="5" stroke-miterlimit="10"/>
<mask id="mask1" mask-type="alpha" maskUnits="userSpaceOnUse" x="696" y="3" width="214" height="726">
<path d="M696 3C812.63 81.47 889.37 214.69 889.37 365.83C889.37 516.97 812.64 650.19 696 728.66H909.37V3H696Z" fill="#C4C4C4"/>
</mask>
<g mask="url(#mask1)">
<path d="M601.494 771.334L953.494 771.334L953.494 -33.6659L601.494 -33.6659L601.494 771.334Z" fill="#974FC9" stroke="#262626" stroke-width="5" stroke-miterlimit="10"/>
<path d="M645.5 157.31C653.26 161.16 661.24 160.35 669.14 158.07C678.49 155.38 687.64 151.97 697.06 149.54C703.13 147.97 709.49 147.33 715.77 146.76C724.59 145.96 731.77 141.96 737.86 135.94C746.31 127.59 752.04 117.69 753.98 105.8C756.44 90.77 748.56 79.99 733.52 77.65C725.51 76.4 717.58 77.07 709.68 78.39C702.38 79.61 695.56 78.32 688.99 75.11C684.88 73.1 680.83 70.95 676.62 69.2C667.62 65.44 651.47 69.02 647.17 82.51C646.74 83.87 646.07 85.15 645.51 86.47C645.5 110.07 645.5 133.69 645.5 157.31Z" fill="#262626"/>
<path d="M645.5 48.4C656.95 44.09 668.84 41.65 680.87 39.56C694.76 37.15 707.76 32.29 718.8 23.16C725.64 17.5 730.91 10.71 732.78 1.79999C735.34 -10.38 729.65 -20.9 718 -25.35C712.28 -27.53 705.95 -28.47 700.69 -31.4C689.74 -37.5 679.22 -44.4 668.72 -51.28C660.82 -56.45 653.22 -62.1 645.49 -67.54C645.5 -28.89 645.5 9.74999 645.5 48.4Z" fill="#262626"/>
<path d="M1039.55 442.45C1033.19 433.51 1025.25 427 1013.73 426.76C1011.08 426.7 1008.05 427.68 1005.81 429.12C1000.72 432.4 995.53 432.77 990.23 430.49C985.6 428.5 981.18 426 976.76 423.55C970.62 420.14 964.56 416.34 957.37 415.91C944.71 415.15 932.04 415.26 919.78 419.18C908.64 422.74 901.09 430.03 897.75 441.41C897.64 441.78 897.43 442.11 897.26 442.46C944.7 442.45 992.13 442.45 1039.55 442.45Z" fill="#262626"/>
<path d="M787.78 442.45C784.09 432.86 773.82 425.89 763.16 425.75C752.89 425.61 742.81 426.72 732.75 428.99C725.09 430.72 717.96 433.11 711.89 438.14C710.33 439.43 709 441 707.56 442.44C734.3 442.45 761.04 442.45 787.78 442.45Z" fill="#262626"/>
<path d="M866.17 255.44C867.1 240.67 862.54 227.18 856.66 213.97C849.49 197.85 840.87 182.64 828.63 169.76C818.75 159.37 807.37 151.25 792.72 149.46C781.25 148.06 769.93 149.34 759.2 153.96C753.69 156.33 749.46 160.42 745.84 165.07C737.78 175.41 728.01 183.69 717.13 191.02C705.11 199.12 693.56 207.95 682.11 216.86C676.64 221.12 672.27 226.6 669.36 233.04C666.45 239.48 666.41 246.06 670.78 251.62C679.71 262.98 680.49 275.91 679.15 289.37C678.02 300.71 676.44 312 675.35 323.34C674.06 336.84 677.47 349.43 683.51 361.4C689.02 372.3 696.03 382.05 705.51 389.89C723.42 404.71 743.8 406.56 764.3 395.61C778.9 387.81 788.59 376.15 793.75 360.49C795.45 355.32 797.33 350.18 799.64 345.27C802.38 339.46 807.54 335.99 813.77 336.64C832.31 338.59 842.91 328.18 850.97 313.72C860.39 296.82 864.74 278.43 865.95 259.23C866.03 257.96 866.1 256.7 866.17 255.44Z" fill="#262626"/>
<path d="M874.07 288.55C875.13 309.41 878.67 328.04 889.07 344.75C898.51 359.92 912.07 365.64 929.79 362.7C943.91 360.36 956.55 355.22 967.51 346.02C975.51 339.31 985.14 335.92 994.71 332.23C1016.68 323.79 1037.74 313.41 1057.55 300.68C1067.3 294.42 1074.47 286.02 1076.71 274.2C1079.73 258.27 1073.88 239.36 1059.15 230.91C1051.07 226.28 1042.49 226.06 1033.64 227.73C1026.94 228.99 1020.23 230.21 1013.51 231.33C1004.49 232.84 996.68 230.33 991.1 223.06C986.28 216.77 979.8 214.72 972.53 214.12C957 212.83 942 215.82 927.45 220.83C919.57 223.54 911.54 226.58 904.59 231.04C888.74 241.2 879.54 256.34 875.75 274.69C874.71 279.72 874.49 284.92 874.07 288.55Z" fill="#262626"/>
<path d="M943.05 52.19C943.03 37.14 930.89 26.12 916.88 27.81C896.74 30.24 880.36 23.23 866.93 8.62C864.33 5.79 862.46 2.27 860.42 -1.04C852.04 -14.61 841.63 -26.17 827.52 -33.97C812.64 -42.19 797.81 -42.41 783.26 -33.06C766.48 -22.27 755.76 -7.33 752.92 12.64C751.15 25.06 753.31 37.17 757.59 48.83C767.76 76.57 784.66 99.35 808.7 116.64C816.35 122.14 824.73 126.27 834.35 127.15C840.34 127.7 845.97 126.45 850.36 122.27C862.44 110.78 876.83 103.67 892.52 98.6C908.25 93.52 922.11 85.16 933.44 72.98C939.17 66.84 942.89 59.68 943.05 52.19Z" fill="#262626"/>
<path d="M903.14 200.24C915.54 199.92 924.99 195.94 933.92 190.53C942.74 185.18 950.81 178.87 956.64 170.23C958.43 167.57 959.93 164.29 960.24 161.17C960.64 157.16 957.91 153.96 954.24 152.64C948.41 150.55 942.44 148.46 936.36 147.57C926.25 146.1 916.96 143.04 908.31 137.55C901.15 133 893.48 129.54 884.98 127.89C869.19 124.81 858.98 137.83 860.15 151.74C860.5 155.93 861.78 159.84 864.56 163C870.54 169.79 875.06 177.49 879.15 185.49C882.31 191.67 886.53 196.83 893.63 198.59C897.29 199.5 901.08 199.9 903.14 200.24Z" fill="#262626"/>
<path d="M833.25 407.66C840.24 406.99 846.79 408.76 853.22 411.15C859.71 413.56 866.29 414.9 873.22 413.09C880.36 411.22 882.49 407.16 878.32 401.11C873.87 394.66 868.4 388.91 863.37 382.87C863.12 382.57 862.78 382.35 862.55 382.04C852.75 368.81 839.21 367.53 824.49 370.21C819.81 371.06 815.17 372.16 810.54 373.27C802.95 375.1 799.75 380.49 802.22 388.01C805.72 398.64 813.77 404.27 824.29 406.69C827.2 407.35 830.26 407.35 833.25 407.66Z" fill="#262626"/>
<path d="M930.19 792.54C930.95 791.08 931.6 789.56 932.49 788.19C940.3 776.1 941.13 763.03 938.07 749.39C935.42 737.58 930.83 726.47 924.55 716.25C917.49 704.76 913.7 692.42 911.99 679.22C911.57 675.96 910.78 672.69 909.7 669.58C907.15 662.24 901.83 659.12 894.04 659.8C886.31 660.48 879.91 663.88 874.24 668.95C865.77 676.52 860.04 686.2 853.56 695.34C844.04 708.77 838.47 724.09 831.84 738.92C828.13 747.21 823.88 755.17 818.21 762.35C811.25 771.16 808.46 781.5 807.83 792.54C848.61 792.54 889.4 792.54 930.19 792.54Z" fill="#262626"/>
<path d="M851.73 348.13C847.88 355.89 848.69 363.87 850.97 371.77C853.66 381.12 857.07 390.27 859.5 399.69C861.07 405.76 861.71 412.12 862.28 418.4C863.08 427.22 867.08 434.4 873.1 440.49C881.45 448.94 891.35 454.67 903.24 456.61C918.27 459.07 929.05 451.19 931.39 436.15C932.64 428.14 931.97 420.21 930.65 412.31C929.43 405.01 930.72 398.19 933.93 391.62C935.94 387.51 938.09 383.46 939.85 379.25C943.61 370.25 940.03 354.1 926.54 349.8C925.18 349.37 923.9 348.7 922.58 348.14C898.96 348.13 875.34 348.13 851.73 348.13Z" fill="#262626"/>
<path d="M684.86 348.13C691.85 360.07 704.21 365.67 717.5 362.97C728.51 360.73 738.34 356.22 746.34 348.13C725.84 348.13 705.35 348.13 684.86 348.13Z" fill="#262626"/>
<path d="M790.83 348.13C799.04 354.75 808.35 358.15 818.94 357.55C825.08 357.2 829.41 354.24 831.23 348.13C817.77 348.13 804.3 348.13 790.83 348.13Z" fill="#262626"/>
<path d="M753.6 568.8C768.37 569.73 781.86 565.17 795.07 559.29C811.19 552.12 826.4 543.5 839.28 531.26C849.67 521.38 857.79 510 859.58 495.35C860.98 483.88 859.7 472.56 855.08 461.83C852.71 456.32 848.62 452.09 843.97 448.47C833.63 440.41 825.35 430.64 818.02 419.76C809.92 407.74 801.09 396.19 792.18 384.74C787.92 379.27 782.44 374.9 776 371.99C769.56 369.08 762.98 369.04 757.42 373.41C746.06 382.34 733.13 383.12 719.67 381.78C708.33 380.65 697.04 379.07 685.7 377.98C672.2 376.69 659.61 380.1 647.64 386.14C636.74 391.65 626.99 398.66 619.15 408.14C604.33 426.05 602.48 446.43 613.43 466.93C621.23 481.53 632.89 491.22 648.55 496.38C653.72 498.08 658.86 499.96 663.77 502.27C669.58 505.01 673.05 510.17 672.4 516.4C670.45 534.94 680.86 545.54 695.32 553.6C712.22 563.02 730.61 567.37 749.81 568.58C751.07 568.66 752.33 568.73 753.6 568.8Z" fill="#262626"/>
<path d="M720.48 576.7C699.62 577.76 680.99 581.3 664.28 591.7C649.11 601.14 643.39 614.7 646.33 632.42C648.67 646.54 653.81 659.18 663.01 670.14C669.72 678.14 673.11 687.77 676.8 697.34C685.24 719.31 695.62 740.37 708.35 760.18C714.61 769.93 723.01 777.1 734.83 779.34C750.76 782.36 769.67 776.51 778.12 761.78C782.75 753.7 782.97 745.12 781.3 736.27C780.04 729.57 778.82 722.86 777.7 716.14C776.19 707.12 778.7 699.31 785.97 693.73C792.26 688.91 794.31 682.43 794.91 675.16C796.2 659.63 793.21 644.63 788.2 630.08C785.49 622.2 782.45 614.17 777.99 607.22C767.83 591.37 752.69 582.17 734.34 578.38C729.32 577.34 724.12 577.12 720.48 576.7Z" fill="#262626"/>
<path d="M956.84 645.68C971.89 645.66 982.91 633.52 981.22 619.51C978.79 599.37 985.8 582.99 1000.41 569.56C1003.24 566.96 1006.76 565.09 1010.07 563.05C1023.64 554.67 1035.2 544.26 1043 530.15C1051.22 515.27 1051.44 500.44 1042.09 485.89C1031.3 469.11 1016.36 458.39 996.39 455.55C983.97 453.78 971.86 455.94 960.2 460.22C932.46 470.39 909.68 487.29 892.39 511.33C886.89 518.98 882.76 527.36 881.88 536.98C881.33 542.97 882.58 548.6 886.76 552.99C898.25 565.07 905.36 579.46 910.43 595.15C915.51 610.88 923.87 624.74 936.05 636.07C942.19 641.8 949.36 645.52 956.84 645.68Z" fill="#262626"/>
<path d="M808.79 605.77C809.11 618.17 813.09 627.62 818.5 636.55C823.85 645.37 830.16 653.44 838.8 659.27C841.46 661.06 844.74 662.56 847.86 662.87C851.87 663.27 855.07 660.54 856.39 656.87C858.48 651.04 860.57 645.07 861.46 638.99C862.93 628.88 865.99 619.59 871.48 610.94C876.03 603.78 879.49 596.11 881.14 587.61C884.22 571.82 871.2 561.61 857.29 562.78C853.1 563.13 849.19 564.41 846.03 567.19C839.24 573.17 831.54 577.69 823.54 581.78C817.36 584.94 812.2 589.16 810.44 596.26C809.54 599.92 809.14 603.71 808.79 605.77Z" fill="#262626"/>
</g>
<path d="M696 3C812.63 81.47 889.37 214.69 889.37 365.83C889.37 516.97 812.64 650.19 696 728.66H909.37V3H696Z" stroke="#262626" stroke-width="5" stroke-miterlimit="10"/>
<path d="M452.83 689.5C606.089 689.5 730.33 671.815 730.33 650C730.33 628.185 606.089 610.5 452.83 610.5C299.571 610.5 175.33 628.185 175.33 650C175.33 671.815 299.571 689.5 452.83 689.5Z" fill="#262626"/>
<path d="M488.45 285.11C488.45 285.11 407.06 250.86 380.39 264.22C353.72 277.58 321.57 308.36 292.85 301.52C264.12 294.68 219.67 332.3 252.5 350.08C285.33 367.86 359.88 337.77 377.66 322.04C395.44 306.31 470.67 334.22 470.67 334.22L488.45 285.11Z" fill="#E2829E" stroke="#262626" stroke-width="5" stroke-miterlimit="10"/>
<path d="M344.01 373.31C323.95 394.06 233.44 365.33 173.25 396.24C113.06 427.15 140.42 468.38 190.58 451.51C240.74 434.64 339.22 452.42 375.24 433.73C411.26 415.04 445.13 334.27 445.13 334.27C464.58 334.77 528.57 300.29 549.31 285.09C581.98 261.14 598.93 268.42 601.81 261.14C604.42 254.54 588.17 246.05 582.88 233.8C579.95 227.01 574.3 221.81 566.68 218.2C566.41 217.47 566.14 216.74 565.83 216.03C559.27 200.85 543.76 186.23 524.47 176.65C531.21 161.69 531.53 136.92 521.29 99.27C504.47 37.43 426.77 27.47 398.31 42.97C378.44 53.79 425.4 58.94 442.22 120.77C447.68 140.82 453.86 156.19 460.48 167.62C456.17 168.63 451.91 170 447.74 171.8C443.56 173.61 439.62 175.78 435.92 178.24C432.16 165.49 413.87 142.29 396.82 129.96C344.89 92.42 267.47 135.02 254.21 153.36C240.95 171.7 296.89 158.83 348.81 196.37C380.63 219.37 383.18 225.39 398.76 230.64C392.4 251.35 392.37 272.82 398.97 288.08C399.28 288.8 399.63 289.49 399.97 290.19C399.97 290.19 381.86 302.87 367.04 334.56C352.22 366.25 344.01 373.31 344.01 373.31Z" fill="white"/>
<path d="M680.13 473.31C695.52 577.79 675.15 576.68 659.55 582.17C635.46 590.64 610.71 546.17 564.9 552.92C517.72 559.87 513.64 684.31 454.7 659.05C438.88 652.27 422.45 620.03 406.77 513.59C385.24 367.45 400.34 244.19 504.46 228.85C606.03 213.88 658.6 327.17 680.13 473.31Z" fill="#E2829E" stroke="#262626" stroke-width="5" stroke-miterlimit="10"/>
<path d="M575.05 460.17C615.466 460.17 648.23 426.179 648.23 384.25C648.23 342.321 615.466 308.33 575.05 308.33C534.634 308.33 501.87 342.321 501.87 384.25C501.87 426.179 534.634 460.17 575.05 460.17Z" fill="#FCE6D0" stroke="#262626" stroke-width="5" stroke-miterlimit="10"/>
<path d="M592.15 396.24C605.477 396.24 616.28 385.437 616.28 372.11C616.28 358.783 605.477 347.98 592.15 347.98C578.823 347.98 568.02 358.783 568.02 372.11C568.02 385.437 578.823 396.24 592.15 396.24Z" fill="#974FC9" stroke="#262626" stroke-width="5" stroke-miterlimit="10"/>
<path d="M445.13 334.27C464.58 334.77 528.57 300.29 549.31 285.09C581.98 261.14 598.93 268.42 601.81 261.14C604.42 254.54 588.17 246.05 582.88 233.8C579.95 227.01 574.3 221.81 566.68 218.2C566.41 217.47 566.14 216.74 565.83 216.03C559.27 200.85 543.76 186.23 524.47 176.65C531.21 161.69 531.53 136.92 521.29 99.27C504.47 37.43 426.77 27.47 398.31 42.97C378.44 53.79 425.4 58.94 442.22 120.77C447.68 140.82 453.86 156.19 460.48 167.62C456.17 168.63 451.91 170 447.74 171.8C443.56 173.61 439.62 175.78 435.92 178.24C432.16 165.49 413.87 142.29 396.82 129.96C344.89 92.42 267.47 135.02 254.21 153.36C240.95 171.7 296.89 158.83 348.81 196.37C380.63 219.37 383.18 225.39 398.76 230.64C392.4 251.35 392.37 272.82 398.97 288.08C399.28 288.8 399.63 289.49 399.97 290.19C399.97 290.18 407.55 329.21 445.13 334.27Z" fill="#FCE6D0" stroke="#262626" stroke-width="3" stroke-miterlimit="10"/>
<path d="M443.72 335.95C443.72 335.95 409.85 416.71 373.83 435.41C337.81 454.11 239.32 436.32 189.17 453.19C139.02 470.06 111.66 428.83 171.84 397.92C232.02 367.01 322.53 395.74 342.6 374.99C342.6 374.99 350.81 367.92 365.63 336.23C380.45 304.54 398.56 291.86 398.56 291.86C398.56 291.86 410.67 335.41 443.72 335.95Z" fill="#FCE6D0" stroke="#262626" stroke-width="3" stroke-miterlimit="10"/>
<path d="M344.01 373.31C323.95 394.06 233.44 365.33 173.25 396.24C113.06 427.15 140.42 468.38 190.58 451.51C240.74 434.64 339.22 452.42 375.24 433.73C411.26 415.04 445.13 334.27 445.13 334.27C464.58 334.77 528.57 300.29 549.31 285.09C581.98 261.14 598.93 268.42 601.81 261.14C604.42 254.54 588.17 246.05 582.88 233.8C579.95 227.01 574.3 221.81 566.68 218.2C566.41 217.47 566.14 216.74 565.83 216.03C559.27 200.85 543.76 186.23 524.47 176.65C531.21 161.69 531.53 136.92 521.29 99.27C504.47 37.43 426.77 27.47 398.31 42.97C378.44 53.79 425.4 58.94 442.22 120.77C447.68 140.82 453.86 156.19 460.48 167.62C456.17 168.63 451.91 170 447.74 171.8C443.56 173.61 439.62 175.78 435.92 178.24C432.16 165.49 413.87 142.29 396.82 129.96C344.89 92.42 267.47 135.02 254.21 153.36C240.95 171.7 296.89 158.83 348.81 196.37C380.63 219.37 383.18 225.39 398.76 230.64C392.4 251.35 392.37 272.82 398.97 288.08C399.28 288.8 399.63 289.49 399.97 290.19C399.97 290.19 381.86 302.87 367.04 334.56C352.22 366.25 344.01 373.31 344.01 373.31Z" fill="#FCE6D0" stroke="#262626" stroke-width="5" stroke-miterlimit="10"/>
<path d="M486.12 274.42C497.337 274.42 506.43 265.327 506.43 254.11C506.43 242.893 497.337 233.8 486.12 233.8C474.903 233.8 465.81 242.893 465.81 254.11C465.81 265.327 474.903 274.42 486.12 274.42Z" fill="#FCE6D0" stroke="#262626" stroke-width="5" stroke-miterlimit="10"/>
<path d="M561.87 240.04C571.524 240.04 579.35 232.214 579.35 222.56C579.35 212.906 571.524 205.08 561.87 205.08C552.216 205.08 544.39 212.906 544.39 222.56C544.39 232.214 552.216 240.04 561.87 240.04Z" fill="#FCE6D0" stroke="#262626" stroke-width="5" stroke-miterlimit="10"/>
<path d="M554.4 208.19C554.4 208.19 561.96 211.03 565.74 218.59C569.52 226.15 569.4 237.26 569.4 237.26L557.5 241L546.61 229.22L544.98 216.46L553.31 207.39L554.4 208.19Z" fill="#262626"/>
<path d="M552.76 227.65L546.22 241.02L534.34 232.95L552.76 227.65Z" fill="#FCE6D0"/>
<path d="M538.42 247.22L547.85 242.68C555.14 239.17 563.5 244.86 562.9 252.93C561.95 265.64 547.6 272.56 537.07 265.38C530.38 260.82 531.13 250.73 538.42 247.22Z" fill="#E2829E" stroke="#262626" stroke-width="5" stroke-miterlimit="10"/>
<path d="M477.55 236.85C477.55 236.85 486.99 240.39 491.71 249.83C496.43 259.27 496.28 273.14 496.28 273.14H477.71L467.84 263.11L465.81 247.18L476.2 235.86L477.55 236.85Z" fill="#262626"/>
<path d="M475.51 261.13L467.35 277.82L452.51 267.76L475.51 261.13Z" fill="#FCE6D0"/>
<path d="M592.16 352.5C582.89 352.49 575.11 358.92 573.06 367.56" stroke="#FCE6D0" stroke-width="5" stroke-miterlimit="10" stroke-linecap="round"/>
<defs>
<clipPath id="clip0">
<rect width="859" height="186" fill="white" transform="translate(28 544)"/>
</clipPath>
</defs>
</svg>
