<svg width="384" height="72" viewBox="0 0 384 72" fill="none" xmlns="http://www.w3.org/2000/svg">
<path d="M383 1H1V71H383V1Z" fill="#E2829E" stroke="#262626" stroke-width="2" stroke-miterlimit="10"/>
<mask id="mask0" mask-type="alpha" maskUnits="userSpaceOnUse" x="0" y="0" width="384" height="72">
<path d="M383 1H1V71H383V1Z" fill="#E2829E" stroke="#262626" stroke-width="2" stroke-miterlimit="10"/>
</mask>
<g mask="url(#mask0)">
<path fill-rule="evenodd" clip-rule="evenodd" d="M-343.662 20.9363C-342.298 28.0579 -338.966 35.1615 -337.975 42.2876C-336.18 55.1292 -345.17 68.1471 -374.581 79.4015V62.9698C-369.167 59.253 -365.146 55.4502 -363.006 51.548C-352.551 32.4621 -371.464 13.3083 -367.429 -5.78677C-366.812 -8.70777 -366.481 -12.1714 -360.521 -14.8753C-357.305 -16.3313 -352.838 -16.7654 -348.559 -15.2416C-342.499 -13.0847 -341.852 -9.98288 -341.048 -7.55474C-339.985 -4.29462 -340.459 -1.02092 -341.393 2.2392C-343.217 8.49267 -344.854 14.6648 -343.662 20.9363ZM-327.563 135.805C-327.161 128.747 -327.908 121.684 -327.707 114.625C-327.377 103.222 -324.318 91.818 -323.054 80.446C-322.752 77.7014 -322.681 74.8979 -323.298 72.1578C-336.611 72.3748 -337.271 75.843 -339.784 78.0541C-343.059 80.9253 -347.568 83.9142 -352.221 86.695C-361.398 92.1798 -363.02 97.85 -362.848 103.615C-362.776 106.134 -363.063 108.661 -362.92 111.18C-362.805 113.111 -360.292 114.829 -358.454 116.701C-356.802 118.374 -355.998 120.051 -353.973 121.711C-351.962 123.366 -351.718 124.917 -351.575 126.621C-351.259 130.379 -350.914 134.15 -350.225 137.903C-349.736 140.584 -347.367 143.22 -347.022 145.902C-346.778 147.774 -347.238 149.537 -344.854 151.35C-341.565 153.855 -341.35 156.464 -339.871 159.033C-339.038 160.475 -334.141 164.798 -323.126 162.921V161.474C-321.934 158.531 -322.307 155.298 -322.91 152.345C-323.456 149.637 -325.869 146.96 -327.003 144.26C-328.181 141.434 -327.736 138.631 -327.563 135.805ZM-343.662 213.903C-342.298 221.025 -338.966 228.128 -337.975 235.255C-336.18 248.096 -345.17 261.114 -374.581 272.368V255.937C-369.167 252.22 -365.146 248.417 -363.006 244.515C-352.551 225.429 -371.464 206.275 -367.429 187.18C-366.812 184.259 -366.481 180.796 -360.521 178.092C-357.305 176.636 -352.838 176.201 -348.559 177.725C-342.499 179.882 -341.852 182.984 -341.048 185.412C-339.985 188.672 -340.459 191.946 -341.393 195.206C-343.217 201.46 -344.854 207.632 -343.662 213.903ZM-327.563 328.772C-327.161 321.713 -327.908 314.651 -327.707 307.592C-327.377 296.189 -324.318 284.785 -323.054 273.408C-322.752 270.664 -322.681 267.86 -323.298 265.12C-336.611 265.337 -337.271 268.805 -339.784 271.016C-343.059 273.888 -347.568 276.872 -352.221 279.657C-361.398 285.142 -363.02 290.812 -362.848 296.577C-362.776 299.096 -363.063 301.624 -362.92 304.142C-362.805 306.073 -360.292 307.791 -358.454 309.663C-356.802 311.336 -355.998 313.014 -353.973 314.673C-351.962 316.328 -351.718 317.879 -351.575 319.584C-351.259 323.341 -350.914 327.112 -350.225 330.865C-349.736 333.547 -347.367 336.183 -347.022 338.864C-346.778 340.736 -347.238 342.5 -344.854 344.313C-341.565 346.818 -341.35 349.431 -339.871 351.995C-339.038 353.437 -334.141 357.76 -323.126 355.884V354.437C-321.934 351.498 -322.307 348.26 -322.91 345.312C-323.456 342.604 -325.869 339.927 -327.003 337.227C-328.181 334.401 -327.736 331.598 -327.563 328.772ZM-155.189 -25.1395L-155.161 -24.4884C-155.175 -16.3991 -170.01 -12.1985 -174.993 -21.5629C-175.625 -22.7521 -176.228 -23.9413 -176.817 -25.135H-155.189V-25.1395ZM-196.635 -25.1395C-196.707 -22.951 -196.85 -20.7671 -197.08 -18.5786C-197.08 -12.5602 -204.375 -9.52619 -219.225 -25.1395H-196.635ZM-252.958 79.6593C-261.13 85.3611 -268.21 91.1986 -273.911 97.0315C-280 103.253 -287.525 109.774 -286.52 116.167L-290.038 118.79C-290.885 120.82 -291.704 122.85 -292.322 124.885C-293.959 130.252 -294.332 135.629 -293.815 141.005C-293.514 144.043 -292.939 147.082 -292.824 150.12C-292.738 152.155 -290.613 155.32 -294.648 157.238C-297.491 158.59 -298.712 158.386 -301.886 157.075C-307.185 154.886 -308.406 151.934 -310.057 149.542C-313.777 144.174 -314.179 138.762 -314.667 133.345C-316.319 114.833 -309.598 96.3849 -309.296 77.8822C-309.124 67.1026 -308.492 56.3003 -310.258 45.5252C-311.666 36.9385 -316.635 28.3971 -317.554 19.8104C-318.3 12.743 -316.721 5.77967 -321.56 -1.25153C-324.16 -5.03165 -328.051 -8.77559 -330.234 -12.5693C-331.426 -14.6447 -334.026 -17.8822 -327.089 -19.6773C-315.658 -22.6345 -291.876 -19.5553 -284.768 -17.0955C-278.305 -14.8572 -277.587 -12.0086 -276.769 -9.46289C-275.318 -4.98191 -274.816 -0.487364 -273.423 3.99813C-270.019 14.9406 -263.456 25.8649 -265.036 36.8526C-266.213 45.073 -276.237 53.7501 -271.513 61.9524C-270.895 63.015 -269.847 65.6104 -262.336 65.1583C-254.71 64.6971 -251.91 60.7315 -250.704 59.47C-243.839 52.2986 -246.367 44.8333 -244.615 37.5625C-243.236 31.8561 -239.186 26.2176 -240.12 20.4887C-241.154 14.1809 -244.026 7.90486 -244.442 1.58808C-244.773 -3.51689 -248.392 -8.19682 -252.843 -13.1887C-256.247 -17.005 -254.236 -19.5779 -237.477 -21.5041C-223.03 -14.3237 -213.638 -6.2118 -214.241 1.61973C-214.572 5.78419 -214.471 9.96222 -214.342 14.1267C-214.198 18.689 -216.898 23.0344 -217.932 27.5515C-218.837 31.4854 -219.11 35.478 -219.655 39.4209C-220.302 44.1506 -225.457 48.7943 -227.094 53.524C-228.645 57.9778 -231.101 62.4769 -235.366 66.8539C-239.718 71.2942 -246.754 75.332 -252.958 79.6593ZM-196.635 167.796C-196.132 153.462 -198.531 139.155 -199.22 124.813C-199.593 117.013 -197.511 109.335 -191.163 101.648C-188.794 98.7769 -186.065 95.9192 -184.285 93.0299C-183.753 92.1617 -179.991 88.7071 -183.753 87.9746C-189.971 86.7583 -200.958 96.1769 -202.063 97.1491C-208.425 102.751 -213.049 108.444 -217.587 114.123C-226.635 125.437 -233.112 136.967 -229.852 148.457C-228.042 154.859 -225.328 161.379 -219.368 167.674L-219.225 167.8C-204.375 183.414 -197.08 180.38 -197.08 174.361C-196.85 172.168 -196.721 169.98 -196.635 167.796ZM278.582 -21.9427C266.878 -11.5655 283.766 -1.04353 283.393 9.38797C283.163 15.5917 292.627 44.1641 267.524 44.1641C242.421 44.1641 248.323 -17.4346 244.46 -21.8749C243.527 -22.9465 242.665 -24.0408 241.818 -25.1395H281.856C280.808 -24.1041 279.831 -23.0505 278.582 -21.9427ZM237.524 44.8876C233.417 45.2313 231.291 42.3645 230.588 41.7812C220.42 33.19 215.968 24.201 210.425 15.438C201.808 1.81869 195.748 -11.9498 177.768 -25.135H208.544C228.721 -8.6309 234.508 8.81371 236.677 25.7157C236.677 25.7157 240.985 35.4147 240.497 39.0953C240.396 39.7691 241.617 44.5485 237.524 44.8876ZM4.73368 71.9227C9.21428 77.6245 15.5618 83.2404 23.6757 88.7569C28.86 92.2883 35.1213 95.7835 38.3956 99.428C41.2391 102.607 41.4258 105.853 39.9179 109.068C38.8408 111.361 38.2376 114.734 32.2204 116.755C27.309 118.401 25.04 116.719 23.4603 115.471C19.109 112.03 17.3856 108.422 14.3267 104.922C4.61878 93.8257 -13.1887 83.2178 -27.4348 72.3703C-46.2619 58.0411 -58.124 43.3774 -62.2456 28.5237C-65.3762 17.2738 -66.0656 5.9108 -65.2614 -5.35269C-65.0316 -8.50429 -68.9808 -22.0919 -40.058 -20.5772C-35.5056 -20.3375 -45.0699 -0.966663 -33.5812 7.93199C-22.0351 16.8713 -17.138 25.3178 -15.8599 34.6912C-14.1796 47.1937 -5.03174 59.5107 4.73368 71.9227ZM247.289 90.6424C267.969 75.8927 308.352 43.5673 308.352 43.5673C308.151 41.7586 308.151 38.7879 296.116 40.7096C290.042 41.6772 288.031 43.4497 285.59 44.9057C280.492 47.9397 272.191 50.7115 266.806 53.7456C261.061 56.9786 254.441 60.302 249.3 63.6842C246.657 65.4205 238.601 74.179 228.089 73.3108C226.696 71.2128 223.364 69.0921 221.612 66.985C219.515 64.4529 218.855 61.8122 215.81 59.3117C209.405 54.0576 207.395 48.6225 201.952 43.3141C190.736 32.3761 190.248 21.2393 185.796 10.0617C184.044 5.67115 178.544 1.90912 172.383 -2.26438C164.326 -7.713 171.09 -13.5821 155.064 -18.5424C148.228 -20.6585 142.297 -22.8696 136.998 -25.144H107.759C111.033 -22.9329 114.394 -20.7264 117.926 -18.5198C127.965 -12.2573 137.558 -5.98572 143.13 0.539053C150.497 9.1664 152.45 17.9565 155.897 26.6788C159.358 35.4328 164.642 44.0918 173.891 52.6558C182.522 60.6502 191.325 68.5766 197.127 76.6931C200.286 81.1107 202.914 85.542 206.375 89.9461C208.558 92.7179 209.85 96.3849 217.174 98.8266C230.746 103.344 245.006 92.2702 247.289 90.6424ZM-152.805 147.869C-151.053 144.102 -150.723 140.195 -149.617 136.424C-148.741 133.467 -145.941 130.646 -145.927 127.634C-145.912 122.385 -143.658 116.968 -140.943 111.876C-140.297 110.673 -141.073 109.249 -140.34 107.983C-139.55 106.631 -137.54 105.311 -136.578 103.923C-135.558 102.435 -133.792 96.5884 -122.145 97.0858C-116.745 101.228 -115.998 105.37 -110.929 109.471C-105.242 114.056 -108.875 119.902 -108.875 124.749C-108.875 127.2 -111.776 129.56 -112.581 132.029C-113.241 134.064 -113.054 136.275 -114.376 138.332C-115.74 140.444 -118.196 142.452 -118.109 144.645C-118.009 146.987 -118.684 149.537 -119.976 151.884C-126.755 164.21 -101.48 174.732 -101.48 140.869C-101.48 133.467 -88.1526 126.386 -88.4829 119.011C-88.7845 112.152 -85.7256 105.419 -95.2326 98.795C-100.087 95.4173 -103.806 92.1255 -110.283 88.8563C-116.372 85.7771 -122.461 82.5215 -127.028 79.3292C-133.332 74.9251 -135.414 70.322 -141.805 65.8908C-146.602 62.5719 -152.159 59.1942 -153.107 55.708C-155.333 47.5825 -161.278 38.295 -148.583 30.4816C-142.279 26.602 -139.091 21.7231 -129.052 18.2052C-120.939 15.3611 -110.556 13.6745 -106.736 10.2742C-100.948 5.11951 -100.604 -0.148241 -92.4609 -5.14469C-83.9305 -10.3853 -85.7687 -16.3494 -82.8104 -21.807C-82.3365 -22.6707 -82.3365 -23.9051 -82.6381 -25.1395H-96.9415C-108.416 -20.1069 -117.736 -14.907 -124.198 -9.43576C-128.708 -5.61494 -131.853 -1.73535 -135.86 2.10807C-139.924 6.00123 -143.658 10.7083 -154.399 14.0769C-162.93 16.7492 -169.292 15.0943 -171.446 12.5531C-174.821 8.56954 -170.958 4.29204 -166.118 0.439575C-161.25 -3.44002 -154.428 -7.22918 -153.365 -11.2806C-152.691 -13.8263 -187.071 -14.4593 -187.071 -1.64944C-187.071 5.8701 -198.861 13.2585 -195.429 20.8052C-192.513 27.2486 -180.249 32.8147 -181.585 39.43C-183.523 49.1109 -192.499 58.7194 -203.112 68.1154C-215.103 78.7188 -225.414 89.399 -236.558 100.043C-249.612 112.518 -264.806 124.966 -274.686 137.577C-278.219 142.095 -280.503 146.666 -279.871 151.251C-279.54 153.62 -280.402 159.67 -270.048 161.357C-259.78 163.03 -256.764 158.21 -255.716 156.867C-251.709 151.735 -252.226 146.444 -251.608 141.258C-249.612 124.347 -231.518 107.997 -206.917 91.9763C-195.759 84.7055 -193.131 76.9237 -180.938 69.7478C-178.124 68.0928 -171.417 64.4167 -163.605 67.1794C-154.687 70.3265 -157.157 75.8656 -157.559 79.3518C-159.34 94.7481 -174.562 109.995 -181.226 125.287C-187.343 139.309 -183.739 153.76 -176.802 167.796C-176.214 168.989 -175.611 170.183 -174.979 171.372C-169.981 180.741 -155.146 176.541 -155.146 168.447L-155.175 167.796C-155.304 164.924 -156.137 161.949 -154.572 159.146C-152.547 155.465 -154.543 151.599 -152.805 147.869ZM-36.0656 124.994C-30.0341 119.084 -28.4975 113.811 -30.7808 107.78C-33.0642 101.73 -33.2653 95.7022 -42.2552 89.8828C-52.9684 82.951 -63.0211 76.0871 -71.7238 69.0198C-83.9018 59.1309 -90.6802 49.6489 -90.7232 39.4119L-87.9085 37.9197C-84.9502 37.4766 -82.4801 34.9535 -82.3365 34.0311C-82.1067 32.557 -82.2934 31.0739 -82.279 29.5998C-82.2503 26.186 -80.7711 22.442 -85.3379 19.1864C-91.4844 19.0508 -96.5538 18.879 -100.144 20.0908C-102.93 21.0267 -103.591 22.4375 -104.668 23.5046C-107.928 26.7286 -108.215 29.9887 -110.929 33.2081C-113.083 35.7538 -114.074 38.295 -116.401 40.8498C-117.65 42.2334 -120.68 43.5628 -121.527 44.9419C-122.346 46.2712 -121.542 47.7091 -121.542 49.0475C-121.527 51.756 -120.048 54.365 -118.942 57.0645C-117.521 60.5778 -111.001 64.1725 -107.712 67.6723C-105.845 69.6483 -101.551 71.3258 -99.0238 73.2475C-96.6974 75.011 -94.931 76.8061 -92.8487 78.5831C-89.3733 81.5403 -83.5715 84.1357 -78.1431 86.9301C-72.6285 89.7607 -70.1441 93.0479 -68.4064 96.091C-66.5251 99.3783 -62.5615 102.711 -62.6333 106.016C-62.7482 111.849 -62.3174 117.646 -64.2705 123.452C-65.5055 127.101 -69.8712 130.786 -71.9392 134.426C-73.088 136.451 -71.5945 138.477 -72.5854 140.498C-73.3322 142.04 -73.7486 143.487 -73.8492 145.047C-75.8166 174.578 -41.5515 163.274 -41.5515 152.282C-41.5515 148.145 -41.1207 144.057 -40.6755 139.924C-40.1729 134.851 -41.1638 129.999 -36.0656 124.994ZM-219.655 232.388C-220.302 237.117 -225.457 241.761 -227.094 246.486C-228.645 250.94 -231.101 255.439 -235.366 259.816C-239.703 264.261 -246.754 268.299 -252.944 272.631C-261.115 278.332 -268.195 284.174 -273.897 290.007C-279.986 296.225 -287.511 302.75 -286.505 309.143L-290.024 311.766C-290.871 313.796 -291.69 315.826 -292.307 317.861C-293.944 323.228 -294.318 328.604 -293.801 333.981C-293.499 337.019 -292.925 340.058 -292.81 343.096C-292.724 345.127 -290.598 348.296 -294.634 350.214C-297.477 351.565 -298.698 351.362 -301.872 350.051C-307.171 347.862 -308.391 344.91 -310.043 342.518C-313.762 337.15 -314.165 331.738 -314.653 326.321C-316.304 307.809 -309.583 289.361 -309.282 270.858C-309.109 260.078 -308.478 249.276 -310.244 238.501C-311.651 229.914 -316.62 221.373 -317.539 212.786C-318.286 205.719 -316.706 198.756 -321.546 191.724C-324.145 187.944 -328.037 184.2 -330.22 180.407C-331.412 178.331 -334.011 175.094 -327.075 173.299C-315.644 170.341 -291.862 173.421 -284.753 175.88C-278.291 178.119 -277.573 180.967 -276.754 183.513C-275.304 187.994 -274.801 192.489 -273.408 196.974C-270.005 207.916 -263.442 218.841 -265.021 229.829C-266.199 238.049 -276.223 246.726 -271.498 254.928C-270.881 255.991 -269.832 258.586 -262.322 258.134C-254.696 257.673 -251.896 253.707 -250.689 252.446C-243.825 245.275 -246.352 237.809 -244.6 230.538C-243.222 224.832 -239.172 219.194 -240.105 213.465C-241.139 207.157 -244.012 200.881 -244.428 194.564C-244.758 189.459 -248.377 184.779 -252.829 179.787C-256.233 175.971 -254.222 173.394 -237.463 171.472C-223.016 178.652 -213.624 186.764 -214.227 194.596C-214.557 198.76 -214.457 202.938 -214.328 207.103C-214.184 211.665 -216.884 216.01 -217.918 220.527C-218.837 224.448 -219.11 228.44 -219.655 232.388ZM-199.22 317.78C-199.593 309.98 -197.511 302.302 -191.163 294.615C-188.794 291.744 -186.065 288.886 -184.285 285.997C-183.753 285.124 -179.991 281.674 -183.753 280.941C-189.971 279.725 -200.958 289.144 -202.063 290.111C-208.425 295.714 -213.049 301.407 -217.587 307.086C-226.635 318.399 -233.112 329.929 -229.852 341.419C-228.042 347.817 -225.328 354.342 -219.368 360.636L-219.239 360.763H-196.635C-196.132 346.429 -198.531 332.122 -199.22 317.78ZM290.86 106.902C319.036 91.1127 360.683 76.1731 367.993 59.054C371.683 50.4086 369.644 41.6682 366.872 33.0273C364.388 25.2771 358.184 17.2059 362.363 9.44675C365.408 3.77205 379.28 -0.595887 394.919 -5.07234C413.962 -10.5255 431.813 -16.1052 446.518 -22.1462C448.916 -23.1319 451.257 -24.1357 453.526 -25.1395H402.028C395.968 -21.5584 389.62 -17.9998 381.966 -14.5724C378.993 -13.2385 359.146 -5.36625 352.928 -10.1954C349.998 -12.4743 353.158 -15.2145 355.843 -17.421C359.046 -20.0617 363.555 -22.6255 368.538 -25.1395H323.876C319.539 -21.2283 318.663 -17.2176 318.476 -13.0938C318.232 -7.43718 317.572 -1.73535 318.979 3.91674C320.788 11.1695 329.175 18.1962 329.836 25.5032C330.152 29.003 331.918 32.4168 333.857 35.8895C336.097 39.9138 334.618 43.6984 330.539 47.6503C324.91 53.099 319.539 58.5069 315.805 64.0324C312.804 68.4591 309.888 72.8677 303.943 77.1678C300.295 79.813 297.639 82.4672 294.537 85.1395C289.654 89.3356 280.377 93.1881 272.062 97.1084C254.728 105.275 248.567 113.477 245.666 122.339C244.374 126.282 244.36 130.243 245.552 134.191C246.327 136.741 246.37 140.25 256.222 142.09C259.798 142.759 264.407 143.116 268.831 143.446C268.701 138.011 267.524 132.545 268.773 127.11C270.382 120.11 279.214 113.427 290.86 106.902ZM208.515 167.796C207.725 167.145 206.95 166.493 206.102 165.851C184.69 149.379 137.701 135.136 114.551 118.799C89.3912 101.033 94.1877 82.3677 83.575 64.1273C70.2912 41.2884 43.5368 18.5127 14.8438 -3.65254C10.8802 -6.71371 7.60587 -10.1004 0.928048 -12.9672C-1.71436 -14.1021 -2.73398 -15.0336 -6.92737 -14.0253C-11.9393 -12.8225 -8.96662 -8.46812 -8.8661 -7.03927C-8.56452 -2.7889 -7.22897 1.45695 -5.60619 5.69376C2.03381 25.6298 20.3296 45.1589 36.6579 64.8237C50.229 81.1559 56.9643 97.8726 78.4338 113.861C99.7167 129.71 136.366 144.179 164.484 159.467C169.539 162.211 173.876 164.992 177.711 167.8C195.691 180.985 201.765 194.754 210.382 208.373C215.925 217.136 220.363 226.125 230.544 234.716C231.234 235.3 233.374 238.166 237.481 237.823C241.574 237.484 240.353 232.704 240.439 232.026C240.927 228.345 236.619 218.646 236.619 218.646C234.479 201.744 228.692 184.295 208.515 167.796ZM281.885 167.796C283.608 166.118 285.575 164.504 289.41 162.826C295.815 160.027 303.225 157.595 310.635 154.918C319.065 151.875 330.051 149.279 335.551 145.902C341.08 142.497 346.049 139.065 353.818 135.859C361.171 132.825 372.344 130.252 377.385 127.015C381.808 124.18 392.406 122.235 397.935 119.527C402.042 117.515 403.249 115.29 406.552 113.219C410.472 110.759 412.885 108.404 414.824 105.84C417.006 102.959 422.607 100.278 424.488 97.3842C427.088 93.3825 425.336 89.2995 425.508 85.2752C425.723 80.437 427.993 75.8701 431.726 71.1133C435.489 66.3203 434.958 61.4731 438.332 56.6666C445.585 46.321 446.403 35.9347 448.428 25.5077C448.888 23.1519 448.572 20.76 450.338 18.4268C452.004 16.2112 455.407 14.0589 458.05 11.893C462.401 8.32537 467.973 4.83916 472.554 1.28513C482.349 -6.30224 464.828 -20.5726 461.985 -19.5055C437.916 -10.4531 431.999 0.950526 424.847 11.0339C411.865 29.3285 404.039 47.7634 393.885 66.1304C384.996 82.214 374.311 98.2931 355.24 113.992C347.184 120.621 337.792 127.191 326.102 133.576C317.241 138.414 307.332 143.37 292.885 147.593C285.848 149.65 274.661 152.562 261.033 152.137C247.72 151.721 239.764 148.429 234.695 146.132C213.613 136.587 206.174 125.45 196.466 115.2C166.308 83.3625 142.455 51.3672 119.951 19.2497C110.042 5.10594 100.047 -9.13732 81.0332 -22.8832C79.9848 -23.6383 78.8359 -24.3889 77.7301 -25.1395H38.6972C41.7992 -22.8923 44.4416 -20.5862 47.3137 -18.2033C53.532 -13.035 52.498 -7.57283 61.5023 -2.58542C66.3994 0.132102 72.7325 2.74111 75.1739 5.63046C77.1844 8.0179 76.7967 10.4686 77.1557 12.8787C77.7732 16.9663 78.0604 21.1217 81.4783 25.1596C85.0398 29.3692 91.0714 33.3528 97.0599 37.4268C101.67 40.5604 105.662 43.7346 110.76 46.8319C114.853 49.3143 120.181 51.7244 122.551 54.3198C125.437 57.4759 124.791 60.7587 124.891 63.9555C125.021 68.0793 125.724 72.1985 126.887 76.3132C129.085 84.0769 136.136 91.8587 135.705 99.6405C135.504 103.235 133.853 106.825 135.202 110.416C136.438 113.717 140.573 116.841 145.657 119.956C157.462 127.2 167.672 134.824 187.921 141.253C202.483 145.879 219.558 150.527 228.879 155.782C235.614 159.575 238.673 163.735 241.861 167.796C242.708 168.894 243.57 169.984 244.503 171.06C248.381 175.505 242.478 237.099 267.581 237.099C292.684 237.099 283.235 208.527 283.45 202.323C283.823 191.892 266.935 181.37 278.639 170.993C279.86 169.885 280.822 168.831 281.885 167.796ZM-82.6524 167.827C-82.3508 169.062 -82.3508 170.296 -82.8247 171.16C-85.7831 176.617 -83.9449 182.582 -92.4753 187.822C-100.618 192.823 -100.963 198.086 -106.75 203.241C-110.57 206.641 -120.953 208.328 -129.067 211.172C-139.119 214.69 -142.293 219.569 -148.598 223.448C-161.293 231.262 -155.347 240.549 -153.121 248.675C-152.174 252.161 -146.602 255.543 -141.819 258.858C-135.429 263.284 -133.332 267.887 -127.042 272.296C-122.475 275.488 -116.386 278.744 -110.297 281.828C-103.835 285.092 -100.101 288.384 -95.2469 291.766C-85.74 298.391 -88.7845 305.123 -88.4973 311.983C-88.167 319.358 -101.494 326.439 -101.494 333.845C-101.494 367.708 -126.783 357.186 -119.991 344.86C-118.698 342.513 -118.023 339.963 -118.124 337.621C-118.21 335.428 -115.769 333.425 -114.39 331.308C-113.054 329.251 -113.256 327.04 -112.595 325.005C-111.791 322.536 -108.89 320.176 -108.89 317.725C-108.89 312.874 -105.256 307.032 -110.943 302.447C-116.027 298.345 -116.76 294.204 -122.159 290.062C-133.806 289.56 -135.572 295.411 -136.592 296.894C-137.554 298.278 -139.565 299.598 -140.355 300.954C-141.087 302.22 -140.326 303.649 -140.958 304.848C-143.672 309.939 -145.927 315.356 -145.941 320.606C-145.941 323.622 -148.756 326.439 -149.632 329.396C-150.737 333.167 -151.053 337.074 -152.82 340.84C-154.557 344.566 -152.576 348.436 -154.615 352.113C-156.18 354.916 -155.347 357.896 -155.218 360.763H-176.874C-183.796 346.727 -187.401 332.276 -181.283 318.254C-174.62 302.962 -159.397 287.715 -157.616 272.319C-157.214 268.832 -154.744 263.298 -163.662 260.146C-171.475 257.388 -178.181 261.06 -180.996 262.715C-193.188 269.895 -195.816 277.677 -206.975 284.943C-231.575 300.963 -249.67 317.314 -251.666 334.225C-252.283 339.411 -251.766 344.702 -255.773 349.834C-256.821 351.177 -259.837 356.001 -270.105 354.324C-280.459 352.637 -279.612 346.587 -279.928 344.218C-280.56 339.633 -278.277 335.061 -274.744 330.544C-264.864 317.929 -249.67 305.485 -236.616 293.01C-225.472 282.366 -215.16 271.686 -203.169 261.082C-192.542 251.686 -183.581 242.073 -181.642 232.397C-180.307 225.786 -192.571 220.22 -195.486 213.772C-198.904 206.225 -187.128 198.837 -187.128 191.317C-187.128 178.508 -152.748 179.141 -153.423 181.686C-154.5 185.738 -161.307 189.522 -166.175 193.406C-171.015 197.259 -174.878 201.536 -171.503 205.52C-169.349 208.061 -162.987 209.716 -154.457 207.044C-143.715 203.675 -139.981 198.968 -135.917 195.075C-131.91 191.232 -128.765 187.347 -124.256 183.531C-117.794 178.064 -108.488 172.86 -96.999 167.827C-93.8108 166.43 -90.4935 165.042 -86.9894 163.672C-85.3666 162.361 -83.2699 165.096 -82.6381 167.827H-82.6524V167.827ZM308.409 236.503C308.409 236.503 268.026 268.828 247.347 283.578C245.063 285.21 230.817 296.279 217.232 291.762C209.894 289.325 208.601 285.658 206.433 282.881C202.972 278.477 200.344 274.041 197.184 269.628C191.382 261.512 182.579 253.585 173.948 245.591C164.7 237.027 159.415 228.363 155.954 219.614C152.507 210.892 150.54 202.102 143.187 193.474C137.615 186.95 128.008 180.682 117.984 174.415C114.451 172.209 111.091 170.002 107.816 167.791C92.3065 157.333 79.7981 146.802 71.1816 135.918C69.846 134.231 68.5535 132.545 67.2611 130.858C79.8268 130.546 81.0619 131.134 84.6952 133.481C87.7684 135.47 90.698 137.464 93.2112 139.458C95.753 141.471 96.4136 143.514 97.9215 145.576C99.4438 147.643 104.657 149.46 107.644 151.441C116.117 157.03 124.906 162.587 137.041 167.791C142.34 170.066 148.271 172.277 155.107 174.393C171.133 179.353 164.369 185.222 172.426 190.671C178.587 194.844 184.087 198.602 185.839 202.997C190.291 214.174 190.779 225.311 201.995 236.245C207.438 241.553 209.448 246.984 215.853 252.238C218.898 254.734 219.544 257.379 221.655 259.911C223.407 262.018 226.739 264.139 228.132 266.237C238.644 267.101 246.7 258.347 249.343 256.61C254.484 253.228 261.119 249.9 266.849 246.672C272.234 243.642 280.535 240.866 285.633 237.832C288.089 236.376 290.085 234.603 296.159 233.636C308.208 231.719 308.208 234.694 308.409 236.503ZM524.742 334.342C521.712 343.264 529.194 351.905 530.099 360.763H516.556C510.051 358.904 511.214 356.282 511.113 353.379C510.955 348.848 509.017 344.268 506.532 339.768C500.055 328.103 499.366 316.242 483.957 304.879C478.414 300.801 467.04 297.749 457.834 294.077C445.47 289.148 451.343 282.343 454.287 277.085C459.256 268.204 464.038 259.518 465.115 250.565C466.221 241.327 475.972 232.388 480.812 223.231C485.135 215.052 486.599 206.827 491.324 198.656C495.991 190.571 499.625 182.487 505.398 174.424C504.378 174.393 510.539 171.463 520.132 176.523C529.309 181.361 524.728 187.081 522.128 191.969C517.806 200.099 515.666 208.274 510.912 216.39C505.154 226.243 496.824 236.014 491.525 245.88C486.542 255.172 480.525 264.745 480.927 274.109C480.97 275.163 479.936 277.971 487.547 276.94C491.338 276.429 494.139 275.05 496.307 274.263C500.472 272.748 504.22 271.179 507.853 269.606C518.136 265.152 527.212 260.58 534.048 255.864V272.328C531.046 273.481 527.901 274.62 524.455 275.733C511.688 279.861 498.749 284.021 494.756 288.986C491.252 293.367 496.954 297.337 503.775 301.429C512.578 306.706 520.161 312.051 523.995 317.603C527.901 323.197 526.652 328.727 524.742 334.342ZM-42.2552 282.85C-52.9684 275.918 -63.0211 269.054 -71.7238 261.987C-83.9018 252.098 -90.6802 242.616 -90.7232 232.379L-87.9085 230.887C-84.9502 230.443 -82.4801 227.92 -82.3365 226.998C-82.1067 225.524 -82.2934 224.041 -82.279 222.567C-82.2503 219.153 -80.7711 215.409 -85.3379 212.153C-91.4844 212.018 -96.5538 211.846 -100.144 213.053C-102.93 213.989 -103.591 215.4 -104.668 216.467C-107.928 219.691 -108.215 222.951 -110.929 226.17C-113.083 228.716 -114.074 231.257 -116.401 233.812C-117.65 235.196 -120.68 236.525 -121.527 237.904C-122.346 239.234 -121.542 240.671 -121.542 242.01C-121.527 244.718 -120.048 247.327 -118.942 250.027C-117.521 253.54 -111.001 257.135 -107.712 260.635C-105.845 262.611 -101.551 264.288 -99.0238 266.21C-96.6974 267.973 -94.931 269.768 -92.8487 271.545C-89.3733 274.503 -83.5715 277.098 -78.1431 279.892C-72.6285 282.723 -70.1441 286.01 -68.4064 289.053C-66.5251 292.345 -62.5615 295.673 -62.6333 298.978C-62.7482 304.811 -62.3174 310.608 -64.2705 316.414C-65.5055 320.063 -69.8712 323.753 -71.9392 327.388C-73.088 329.414 -71.5945 331.44 -72.5854 333.461C-73.3322 335.003 -73.7486 336.45 -73.8492 338.01C-75.8166 367.541 -41.5515 356.236 -41.5515 345.244C-41.5515 341.107 -41.1207 337.019 -40.6755 332.886C-40.1442 327.813 -41.135 322.961 -36.0369 317.96C-30.0053 312.051 -28.4687 306.778 -30.7521 300.746C-33.0786 294.701 -33.2653 288.674 -42.2552 282.85ZM23.6613 281.724C28.8456 285.255 35.107 288.75 38.3813 292.395C41.2247 295.574 41.4114 298.82 39.9035 302.035C38.8264 304.328 38.2233 307.701 32.2061 309.717C27.2947 311.363 25.0256 309.681 23.4459 308.433C19.0946 304.992 17.3712 301.384 14.3124 297.884C4.6044 286.788 -13.2031 276.18 -27.4491 265.333C-46.2762 251.004 -58.1384 236.34 -62.2599 221.486C-65.3906 210.236 -66.0799 198.873 -65.2757 187.61C-65.0459 184.458 -68.9952 170.87 -40.0724 172.385C-35.5199 172.625 -45.0843 191.996 -33.5956 200.894C-22.0494 209.834 -17.1523 218.28 -15.8742 227.654C-14.1796 240.161 -5.03174 252.482 4.73368 264.89C9.21428 270.591 15.5618 276.207 23.6613 281.724ZM268.73 320.045C267.481 325.475 268.658 330.942 268.788 336.382C264.364 336.052 259.755 335.69 256.179 335.025C246.327 333.185 246.27 329.676 245.509 327.126C244.317 323.183 244.331 319.217 245.623 315.275C248.539 306.412 254.685 298.214 272.019 290.044C280.334 286.123 289.611 282.271 294.494 278.075C297.61 275.402 300.252 272.748 303.9 270.103C309.845 265.803 312.761 261.394 315.762 256.968C319.51 251.442 324.881 246.034 330.496 240.59C334.575 236.638 336.054 232.854 333.814 228.829C331.875 225.357 330.109 221.943 329.793 218.443C329.146 211.136 320.76 204.109 318.936 196.856C317.528 191.204 318.175 185.503 318.419 179.846C318.606 175.718 319.482 171.707 323.833 167.8C325.772 166.041 328.414 164.305 331.99 162.582C341.167 158.183 352.727 154.122 366.212 150.265C381.219 145.979 393.297 141.674 396.714 136.298L394.302 134.76C398.682 134.525 403.809 134.227 408.275 134.53C424.316 135.624 418.213 141.593 415.513 143.976C407.169 151.35 388.845 158.092 374.283 164.961C372.301 165.897 370.334 166.842 368.452 167.791C363.455 170.305 358.96 172.869 355.757 175.51C353.072 177.721 349.912 180.461 352.842 182.735C359.06 187.564 378.907 179.692 381.88 178.358C389.534 174.931 395.882 171.372 401.956 167.791C407.528 164.499 412.842 161.185 418.687 157.929C428.481 152.467 440.128 147.028 444.565 141.217C449.161 135.185 446.532 129.013 445.527 122.945C444.752 118.27 441.449 112.423 448.916 107.902C454.819 104.325 462.028 111.374 462.961 112.261C470.415 119.319 475.182 126.563 478.6 133.752C481.76 140.39 483.325 147.177 476.992 153.751C472.296 158.621 463.622 163.301 453.454 167.787C451.171 168.795 448.845 169.794 446.446 170.78C431.726 176.821 413.89 182.401 394.848 187.854C379.209 192.33 365.336 196.698 362.291 202.373C358.127 210.137 364.316 218.208 366.801 225.953C369.572 234.594 371.626 243.335 367.921 251.98C360.611 269.095 318.965 284.034 290.788 299.829C279.171 306.362 270.324 313.045 268.73 320.045ZM415.57 336.947C418.27 334.559 424.374 328.591 408.332 327.501C403.866 327.198 398.739 327.492 394.359 327.732L396.772 329.269C393.34 334.645 381.262 338.946 366.269 343.237C352.77 347.094 341.21 351.154 332.047 355.554C328.457 357.272 325.829 359.013 323.89 360.772H368.524C370.405 359.822 372.358 358.877 374.355 357.941C388.902 351.064 407.212 344.322 415.57 336.947ZM477.006 346.727C483.339 340.148 481.774 333.366 478.615 326.728C475.197 319.538 470.429 312.29 462.976 305.232C462.042 304.346 454.847 297.296 448.931 300.873C441.463 305.395 444.766 311.241 445.542 315.917C446.547 321.985 449.175 328.157 444.579 334.189C440.156 339.999 428.495 345.434 418.701 350.901C412.871 354.156 407.543 357.471 401.971 360.763H453.454C463.636 356.277 472.31 351.602 477.006 346.727ZM28.3286 334.315C33.1539 336.576 37.9217 338.842 42.5747 341.116C51.8518 345.651 60.6694 350.236 68.5392 354.893C71.8134 356.833 74.8436 358.796 77.7445 360.763H38.7116C34.073 357.389 28.4004 354.147 19.3531 350.955C12.3019 348.468 4.96344 346.013 1.80404 343.155C-1.25483 340.379 -1.02504 337.476 -1.09684 334.645C-1.19737 330.553 -3.98341 326.375 -1.61386 322.306C-0.522431 320.438 6.70109 323.694 10.4493 324.928C13.3502 325.887 15.9352 326.968 17.9026 328.048C19.7982 329.084 19.8701 330.223 21.6508 331.263C23.4316 332.294 26.1889 333.312 28.3286 334.315ZM107.644 344.412C104.642 342.432 99.4438 340.614 97.9215 338.548C96.3993 336.486 95.753 334.446 93.2112 332.434C90.698 330.44 87.7684 328.446 84.6952 326.457C81.0619 324.11 79.8268 323.522 67.2611 323.834C68.5535 325.521 69.846 327.207 71.1816 328.894C79.7981 339.773 92.3065 350.308 107.788 360.767H137.055C124.891 355.554 116.102 350.001 107.644 344.412ZM114.551 311.761C137.687 328.103 184.69 342.346 206.102 358.814C206.935 359.46 207.711 360.111 208.515 360.758H177.739C173.905 357.95 169.568 355.169 164.513 352.425C136.394 337.141 99.7454 322.667 78.4625 306.819C56.993 290.826 50.2577 274.114 36.6867 257.781C20.344 238.117 2.06256 218.588 -5.57744 198.652C-7.20022 194.415 -8.53581 190.169 -8.83739 185.919C-8.93792 184.49 -11.9106 180.135 -6.89866 178.933C-2.70528 177.924 -1.68565 178.856 0.956754 179.991C7.62021 182.857 10.9089 186.244 14.8725 189.305C43.5656 211.471 70.3199 234.246 83.6037 257.085C94.1877 275.33 89.3912 294 114.551 311.761ZM281.913 360.731H241.832C238.687 356.67 235.628 352.511 228.893 348.717C219.558 343.463 202.498 338.814 187.936 334.189C167.701 327.759 157.491 320.135 145.672 312.892C140.588 309.776 136.452 306.652 135.217 303.351C133.867 299.761 135.533 296.17 135.719 292.576C136.15 284.794 129.099 277.012 126.902 269.248C125.739 265.134 125.049 261.014 124.906 256.891C124.805 253.689 125.451 250.411 122.565 247.255C120.195 244.664 114.867 242.25 110.775 239.767C105.676 236.67 101.67 233.496 97.0599 230.362C91.0714 226.288 85.0398 222.304 81.4783 218.095C78.0748 214.057 77.7732 209.906 77.1557 205.814C76.7967 203.399 77.1844 200.949 75.1739 198.566C72.7469 195.676 66.4137 193.067 61.5023 190.35C52.498 185.362 53.532 179.9 47.3137 174.736C44.4416 172.354 41.7992 170.047 38.6972 167.8C34.0586 164.427 28.3861 161.185 19.3387 157.993C12.2875 155.506 4.94906 153.051 1.78967 150.193C-1.26921 147.417 -1.03942 144.514 -1.11122 141.683C-1.21175 137.591 -3.99774 133.413 -1.62819 129.343C-0.536763 127.476 6.68676 130.732 10.435 131.966C13.3359 132.925 15.9208 134.005 17.8883 135.086C19.7839 136.126 19.8557 137.261 21.6364 138.301C23.4172 139.332 26.1601 140.349 28.3143 141.353C33.1395 143.614 37.9074 145.879 42.5603 148.154C51.8374 152.689 60.655 157.274 68.5248 161.931C71.7991 163.875 74.8292 165.833 77.7301 167.8C78.8359 168.551 79.9848 169.301 81.0332 170.057C100.047 183.802 110.042 198.046 119.951 212.189C142.455 244.307 166.323 276.298 196.466 308.139C206.174 318.39 213.613 329.527 234.695 339.072C239.764 341.369 247.72 344.661 261.033 345.072C274.661 345.497 285.848 342.585 292.885 340.528C307.332 336.305 317.241 331.349 326.102 326.511C337.792 320.126 347.184 313.556 355.24 306.928C374.311 291.228 384.996 275.145 393.885 259.066C404.039 240.699 411.865 222.259 424.847 203.969C431.999 193.886 437.93 182.482 461.985 173.43C464.828 172.363 482.349 186.633 472.554 194.22C467.973 197.774 462.401 201.261 458.05 204.828C455.407 206.994 452.004 209.146 450.324 211.362C448.572 213.695 448.873 216.087 448.414 218.443C446.374 228.87 445.57 239.256 438.318 249.602C434.943 254.408 435.475 259.251 431.712 264.049C427.978 268.805 425.695 273.377 425.494 278.21C425.321 282.235 427.073 286.318 424.474 290.319C422.593 293.213 416.992 295.895 414.809 298.775C412.87 301.339 410.458 303.695 406.537 306.154C403.234 308.225 402.028 310.45 397.921 312.462C392.392 315.171 381.793 317.11 377.37 319.95C372.315 323.187 361.157 325.76 353.804 328.794C346.035 332 341.066 335.437 335.537 338.841C330.051 342.219 319.051 344.819 310.621 347.858C303.211 350.535 295.8 352.967 289.395 355.766C285.604 357.435 283.637 359.053 281.913 360.731ZM445.513 94.3411C445.513 94.3411 440.242 91.9718 442.899 83.5389C445.57 75.1059 458.567 54.2158 462.042 48.4823C465.518 42.7489 460.305 24.0111 467.27 19.5979C474.235 15.1893 498.648 4.07952 497.729 0.638528C496.824 -2.80246 516.571 1.6333 507.882 10.333C499.194 19.0327 483.296 36.5044 490.06 49.3098C496.824 62.1197 475.714 70.7832 471.362 76.5077C467.025 82.2276 459.199 100.947 445.513 94.3411Z" fill="#262626"/>
</g>
</svg>
