<svg width="388" height="76" viewBox="0 0 388 76" fill="none" xmlns="http://www.w3.org/2000/svg">
<path d="M385 3H3V73H385V3Z" fill="#E2829E" stroke="#262626" stroke-width="5" stroke-miterlimit="10"/>
<mask id="mask0" mask-type="alpha" maskUnits="userSpaceOnUse" x="0" y="0" width="388" height="76">
<path d="M385 3H3V73H385V3Z" fill="#E2829E" stroke="#262626" stroke-width="5" stroke-miterlimit="10"/>
</mask>
<g mask="url(#mask0)">
<path fill-rule="evenodd" clip-rule="evenodd" d="M-341.662 22.9363C-340.298 30.0579 -336.966 37.1615 -335.975 44.2876C-334.18 57.1292 -343.17 70.1471 -372.581 81.4015V64.9698C-367.167 61.253 -363.146 57.4502 -361.006 53.548C-350.551 34.4621 -369.464 15.3083 -365.429 -3.78677C-364.812 -6.70777 -364.481 -10.1714 -358.521 -12.8753C-355.305 -14.3313 -350.838 -14.7654 -346.559 -13.2416C-340.499 -11.0847 -339.852 -7.98288 -339.048 -5.55474C-337.985 -2.29462 -338.459 0.979075 -339.393 4.2392C-341.217 10.4927 -342.854 16.6648 -341.662 22.9363ZM-325.563 137.805C-325.161 130.747 -325.908 123.684 -325.707 116.625C-325.377 105.222 -322.318 93.818 -321.054 82.446C-320.752 79.7014 -320.681 76.8979 -321.298 74.1578C-334.611 74.3748 -335.271 77.843 -337.784 80.0541C-341.059 82.9253 -345.568 85.9142 -350.221 88.695C-359.398 94.1798 -361.02 99.85 -360.848 105.615C-360.776 108.134 -361.063 110.661 -360.92 113.18C-360.805 115.111 -358.292 116.829 -356.454 118.701C-354.802 120.374 -353.998 122.051 -351.973 123.711C-349.962 125.366 -349.718 126.917 -349.575 128.621C-349.259 132.379 -348.914 136.15 -348.225 139.903C-347.736 142.584 -345.367 145.22 -345.022 147.902C-344.778 149.774 -345.238 151.537 -342.854 153.35C-339.565 155.855 -339.35 158.464 -337.871 161.033C-337.038 162.475 -332.141 166.798 -321.126 164.921V163.474C-319.934 160.531 -320.307 157.298 -320.91 154.345C-321.456 151.637 -323.869 148.96 -325.003 146.26C-326.181 143.434 -325.736 140.631 -325.563 137.805ZM-341.662 215.903C-340.298 223.025 -336.966 230.128 -335.975 237.255C-334.18 250.096 -343.17 263.114 -372.581 274.368V257.937C-367.167 254.22 -363.146 250.417 -361.006 246.515C-350.551 227.429 -369.464 208.275 -365.429 189.18C-364.812 186.259 -364.481 182.796 -358.521 180.092C-355.305 178.636 -350.838 178.201 -346.559 179.725C-340.499 181.882 -339.852 184.984 -339.048 187.412C-337.985 190.672 -338.459 193.946 -339.393 197.206C-341.217 203.46 -342.854 209.632 -341.662 215.903ZM-325.563 330.772C-325.161 323.713 -325.908 316.651 -325.707 309.592C-325.377 298.189 -322.318 286.785 -321.054 275.408C-320.752 272.664 -320.681 269.86 -321.298 267.12C-334.611 267.337 -335.271 270.805 -337.784 273.016C-341.059 275.888 -345.568 278.872 -350.221 281.657C-359.398 287.142 -361.02 292.812 -360.848 298.577C-360.776 301.096 -361.063 303.624 -360.92 306.142C-360.805 308.073 -358.292 309.791 -356.454 311.663C-354.802 313.336 -353.998 315.014 -351.973 316.673C-349.962 318.328 -349.718 319.879 -349.575 321.584C-349.259 325.341 -348.914 329.112 -348.225 332.865C-347.736 335.547 -345.367 338.183 -345.022 340.864C-344.778 342.736 -345.238 344.5 -342.854 346.313C-339.565 348.818 -339.35 351.431 -337.871 353.995C-337.038 355.437 -332.141 359.76 -321.126 357.884V356.437C-319.934 353.498 -320.307 350.26 -320.91 347.312C-321.456 344.604 -323.869 341.927 -325.003 339.227C-326.181 336.401 -325.736 333.598 -325.563 330.772ZM-153.189 -23.1395L-153.161 -22.4884C-153.175 -14.3991 -168.01 -10.1985 -172.993 -19.5629C-173.625 -20.7521 -174.228 -21.9413 -174.817 -23.135H-153.189V-23.1395ZM-194.635 -23.1395C-194.707 -20.951 -194.85 -18.7671 -195.08 -16.5786C-195.08 -10.5602 -202.375 -7.52619 -217.225 -23.1395H-194.635ZM-250.958 81.6593C-259.13 87.3611 -266.21 93.1986 -271.911 99.0315C-278 105.253 -285.525 111.774 -284.52 118.167L-288.038 120.79C-288.885 122.82 -289.704 124.85 -290.322 126.885C-291.959 132.252 -292.332 137.629 -291.815 143.005C-291.514 146.043 -290.939 149.082 -290.824 152.12C-290.738 154.155 -288.613 157.32 -292.648 159.238C-295.491 160.59 -296.712 160.386 -299.886 159.075C-305.185 156.886 -306.406 153.934 -308.057 151.542C-311.777 146.174 -312.179 140.762 -312.667 135.345C-314.319 116.833 -307.598 98.3849 -307.296 79.8822C-307.124 69.1026 -306.492 58.3003 -308.258 47.5252C-309.666 38.9385 -314.635 30.3971 -315.554 21.8104C-316.3 14.743 -314.721 7.77967 -319.56 0.748471C-322.16 -3.03165 -326.051 -6.77559 -328.234 -10.5693C-329.426 -12.6447 -332.026 -15.8822 -325.089 -17.6773C-313.658 -20.6345 -289.876 -17.5553 -282.768 -15.0955C-276.305 -12.8572 -275.587 -10.0086 -274.769 -7.46289C-273.318 -2.98191 -272.816 1.51264 -271.423 5.99813C-268.019 16.9406 -261.456 27.8649 -263.036 38.8526C-264.213 47.073 -274.237 55.7501 -269.513 63.9524C-268.895 65.015 -267.847 67.6104 -260.336 67.1583C-252.71 66.6971 -249.91 62.7315 -248.704 61.47C-241.839 54.2986 -244.367 46.8333 -242.615 39.5625C-241.236 33.8561 -237.186 28.2176 -238.12 22.4887C-239.154 16.1809 -242.026 9.90486 -242.442 3.58808C-242.773 -1.51689 -246.392 -6.19682 -250.843 -11.1887C-254.247 -15.005 -252.236 -17.5779 -235.477 -19.5041C-221.03 -12.3237 -211.638 -4.2118 -212.241 3.61973C-212.572 7.78419 -212.471 11.9622 -212.342 16.1267C-212.198 20.689 -214.898 25.0344 -215.932 29.5515C-216.837 33.4854 -217.11 37.478 -217.655 41.4209C-218.302 46.1506 -223.457 50.7943 -225.094 55.524C-226.645 59.9778 -229.101 64.4769 -233.366 68.8539C-237.718 73.2942 -244.754 77.332 -250.958 81.6593ZM-194.635 169.796C-194.132 155.462 -196.531 141.155 -197.22 126.813C-197.593 119.013 -195.511 111.335 -189.163 103.648C-186.794 100.777 -184.065 97.9192 -182.285 95.0299C-181.753 94.1617 -177.991 90.7071 -181.753 89.9746C-187.971 88.7583 -198.958 98.1769 -200.063 99.1491C-206.425 104.751 -211.049 110.444 -215.587 116.123C-224.635 127.437 -231.112 138.967 -227.852 150.457C-226.042 156.859 -223.328 163.379 -217.368 169.674L-217.225 169.8C-202.375 185.414 -195.08 182.38 -195.08 176.361C-194.85 174.168 -194.721 171.98 -194.635 169.796ZM280.582 -19.9427C268.878 -9.56546 285.766 0.956469 285.393 11.388C285.163 17.5917 294.627 46.1641 269.524 46.1641C244.421 46.1641 250.323 -15.4346 246.46 -19.8749C245.527 -20.9465 244.665 -22.0408 243.818 -23.1395H283.856C282.808 -22.1041 281.831 -21.0505 280.582 -19.9427ZM239.524 46.8876C235.417 47.2313 233.291 44.3645 232.588 43.7812C222.42 35.19 217.968 26.201 212.425 17.438C203.808 3.81869 197.748 -9.9498 179.768 -23.135H210.544C230.721 -6.6309 236.508 10.8137 238.677 27.7157C238.677 27.7157 242.985 37.4147 242.497 41.0953C242.396 41.7691 243.617 46.5485 239.524 46.8876ZM6.73368 73.9227C11.2143 79.6245 17.5618 85.2404 25.6757 90.7569C30.86 94.2883 37.1213 97.7835 40.3956 101.428C43.2391 104.607 43.4258 107.853 41.9179 111.068C40.8408 113.361 40.2376 116.734 34.2204 118.755C29.309 120.401 27.04 118.719 25.4603 117.471C21.109 114.03 19.3856 110.422 16.3267 106.922C6.61878 95.8257 -11.1887 85.2178 -25.4348 74.3703C-44.2619 60.0411 -56.124 45.3774 -60.2456 30.5237C-63.3762 19.2738 -64.0656 7.9108 -63.2614 -3.35269C-63.0316 -6.50429 -66.9808 -20.0919 -38.058 -18.5772C-33.5056 -18.3375 -43.0699 1.03334 -31.5812 9.93199C-20.0351 18.8713 -15.138 27.3178 -13.8599 36.6912C-12.1796 49.1937 -3.03174 61.5107 6.73368 73.9227ZM249.289 92.6424C269.969 77.8927 310.352 45.5673 310.352 45.5673C310.151 43.7586 310.151 40.7879 298.116 42.7096C292.042 43.6772 290.031 45.4497 287.59 46.9057C282.492 49.9397 274.191 52.7115 268.806 55.7456C263.061 58.9786 256.441 62.302 251.3 65.6842C248.657 67.4205 240.601 76.179 230.089 75.3108C228.696 73.2128 225.364 71.0921 223.612 68.985C221.515 66.4529 220.855 63.8122 217.81 61.3117C211.405 56.0576 209.395 50.6225 203.952 45.3141C192.736 34.3761 192.248 23.2393 187.796 12.0617C186.044 7.67115 180.544 3.90912 174.383 -0.264384C166.326 -5.713 173.09 -11.5821 157.064 -16.5424C150.228 -18.6585 144.297 -20.8696 138.998 -23.144H109.759C113.033 -20.9329 116.394 -18.7264 119.926 -16.5198C129.965 -10.2573 139.558 -3.98572 145.13 2.53905C152.497 11.1664 154.45 19.9565 157.897 28.6788C161.358 37.4328 166.642 46.0918 175.891 54.6558C184.522 62.6502 193.325 70.5766 199.127 78.6931C202.286 83.1107 204.914 87.542 208.375 91.9461C210.558 94.7179 211.85 98.3849 219.174 100.827C232.746 105.344 247.006 94.2702 249.289 92.6424ZM-150.805 149.869C-149.053 146.102 -148.723 142.195 -147.617 138.424C-146.741 135.467 -143.941 132.646 -143.927 129.634C-143.912 124.385 -141.658 118.968 -138.943 113.876C-138.297 112.673 -139.073 111.249 -138.34 109.983C-137.55 108.631 -135.54 107.311 -134.578 105.923C-133.558 104.435 -131.792 98.5884 -120.145 99.0858C-114.745 103.228 -113.998 107.37 -108.929 111.471C-103.242 116.056 -106.875 121.902 -106.875 126.749C-106.875 129.2 -109.776 131.56 -110.581 134.029C-111.241 136.064 -111.054 138.275 -112.376 140.332C-113.74 142.444 -116.196 144.452 -116.109 146.645C-116.009 148.987 -116.684 151.537 -117.976 153.884C-124.755 166.21 -99.4796 176.732 -99.4796 142.869C-99.4796 135.467 -86.1526 128.386 -86.4829 121.011C-86.7845 114.152 -83.7256 107.419 -93.2326 100.795C-98.0865 97.4173 -101.806 94.1255 -108.283 90.8563C-114.372 87.7771 -120.461 84.5215 -125.028 81.3292C-131.332 76.9251 -133.414 72.322 -139.805 67.8908C-144.602 64.5719 -150.159 61.1942 -151.107 57.708C-153.333 49.5825 -159.278 40.295 -146.583 32.4816C-140.279 28.602 -137.091 23.7231 -127.052 20.2052C-118.939 17.3611 -108.556 15.6745 -104.736 12.2742C-98.9482 7.11951 -98.6035 1.85176 -90.4609 -3.14469C-81.9305 -8.38531 -83.7687 -14.3494 -80.8104 -19.807C-80.3365 -20.6707 -80.3365 -21.9051 -80.6381 -23.1395H-94.9415C-106.416 -18.1069 -115.736 -12.907 -122.198 -7.43576C-126.708 -3.61494 -129.853 0.264651 -133.86 4.10807C-137.924 8.00123 -141.658 12.7083 -152.399 16.0769C-160.93 18.7492 -167.292 17.0943 -169.446 14.5531C-172.821 10.5695 -168.958 6.29204 -164.118 2.43958C-159.25 -1.44002 -152.428 -5.22918 -151.365 -9.2806C-150.691 -11.8263 -185.071 -12.4593 -185.071 0.350563C-185.071 7.8701 -196.861 15.2585 -193.429 22.8052C-190.513 29.2486 -178.249 34.8147 -179.585 41.43C-181.523 51.1109 -190.499 60.7194 -201.112 70.1154C-213.103 80.7188 -223.414 91.399 -234.558 102.043C-247.612 114.518 -262.806 126.966 -272.686 139.577C-276.219 144.095 -278.503 148.666 -277.871 153.251C-277.54 155.62 -278.402 161.67 -268.048 163.357C-257.78 165.03 -254.764 160.21 -253.716 158.867C-249.709 153.735 -250.226 148.444 -249.608 143.258C-247.612 126.347 -229.518 109.997 -204.917 93.9763C-193.759 86.7055 -191.131 78.9237 -178.938 71.7478C-176.124 70.0928 -169.417 66.4167 -161.605 69.1794C-152.687 72.3265 -155.157 77.8656 -155.559 81.3518C-157.34 96.7481 -172.562 111.995 -179.226 127.287C-185.343 141.309 -181.739 155.76 -174.802 169.796C-174.214 170.989 -173.611 172.183 -172.979 173.372C-167.981 182.741 -153.146 178.541 -153.146 170.447L-153.175 169.796C-153.304 166.924 -154.137 163.949 -152.572 161.146C-150.547 157.465 -152.543 153.599 -150.805 149.869ZM-34.0656 126.994C-28.0341 121.084 -26.4975 115.811 -28.7808 109.78C-31.0642 103.73 -31.2653 97.7022 -40.2552 91.8828C-50.9684 84.951 -61.0211 78.0871 -69.7238 71.0198C-81.9018 61.1309 -88.6802 51.6489 -88.7232 41.4119L-85.9085 39.9197C-82.9502 39.4766 -80.4801 36.9535 -80.3365 36.0311C-80.1067 34.557 -80.2934 33.0739 -80.279 31.5998C-80.2503 28.186 -78.7711 24.442 -83.3379 21.1864C-89.4844 21.0508 -94.5538 20.879 -98.144 22.0908C-100.93 23.0267 -101.591 24.4375 -102.668 25.5046C-105.928 28.7286 -106.215 31.9887 -108.929 35.2081C-111.083 37.7538 -112.074 40.295 -114.401 42.8498C-115.65 44.2334 -118.68 45.5628 -119.527 46.9419C-120.346 48.2712 -119.542 49.7091 -119.542 51.0475C-119.527 53.756 -118.048 56.365 -116.942 59.0645C-115.521 62.5778 -109.001 66.1725 -105.712 69.6723C-103.845 71.6483 -99.5514 73.3258 -97.0238 75.2475C-94.6974 77.011 -92.931 78.8061 -90.8487 80.5831C-87.3733 83.5403 -81.5715 86.1357 -76.1431 88.9301C-70.6285 91.7607 -68.1441 95.0479 -66.4064 98.091C-64.5251 101.378 -60.5615 104.711 -60.6333 108.016C-60.7482 113.849 -60.3174 119.646 -62.2705 125.452C-63.5055 129.101 -67.8712 132.786 -69.9392 136.426C-71.088 138.451 -69.5945 140.477 -70.5854 142.498C-71.3322 144.04 -71.7486 145.487 -71.8492 147.047C-73.8166 176.578 -39.5515 165.274 -39.5515 154.282C-39.5515 150.145 -39.1207 146.057 -38.6755 141.924C-38.1729 136.851 -39.1638 131.999 -34.0656 126.994ZM-217.655 234.388C-218.302 239.117 -223.457 243.761 -225.094 248.486C-226.645 252.94 -229.101 257.439 -233.366 261.816C-237.703 266.261 -244.754 270.299 -250.944 274.631C-259.115 280.332 -266.195 286.174 -271.897 292.007C-277.986 298.225 -285.511 304.75 -284.505 311.143L-288.024 313.766C-288.871 315.796 -289.69 317.826 -290.307 319.861C-291.944 325.228 -292.318 330.604 -291.801 335.981C-291.499 339.019 -290.925 342.058 -290.81 345.096C-290.724 347.127 -288.598 350.296 -292.634 352.214C-295.477 353.565 -296.698 353.362 -299.872 352.051C-305.171 349.862 -306.391 346.91 -308.043 344.518C-311.762 339.15 -312.165 333.738 -312.653 328.321C-314.304 309.809 -307.583 291.361 -307.282 272.858C-307.109 262.078 -306.478 251.276 -308.244 240.501C-309.651 231.914 -314.62 223.373 -315.539 214.786C-316.286 207.719 -314.706 200.756 -319.546 193.724C-322.145 189.944 -326.037 186.2 -328.22 182.407C-329.412 180.331 -332.011 177.094 -325.075 175.299C-313.644 172.341 -289.862 175.421 -282.753 177.88C-276.291 180.119 -275.573 182.967 -274.754 185.513C-273.304 189.994 -272.801 194.489 -271.408 198.974C-268.005 209.916 -261.442 220.841 -263.021 231.829C-264.199 240.049 -274.223 248.726 -269.498 256.928C-268.881 257.991 -267.832 260.586 -260.322 260.134C-252.696 259.673 -249.896 255.707 -248.689 254.446C-241.825 247.275 -244.352 239.809 -242.6 232.538C-241.222 226.832 -237.172 221.194 -238.105 215.465C-239.139 209.157 -242.012 202.881 -242.428 196.564C-242.758 191.459 -246.377 186.779 -250.829 181.787C-254.233 177.971 -252.222 175.394 -235.463 173.472C-221.016 180.652 -211.624 188.764 -212.227 196.596C-212.557 200.76 -212.457 204.938 -212.328 209.103C-212.184 213.665 -214.884 218.01 -215.918 222.527C-216.837 226.448 -217.11 230.44 -217.655 234.388ZM-197.22 319.78C-197.593 311.98 -195.511 304.302 -189.163 296.615C-186.794 293.744 -184.065 290.886 -182.285 287.997C-181.753 287.124 -177.991 283.674 -181.753 282.941C-187.971 281.725 -198.958 291.144 -200.063 292.111C-206.425 297.714 -211.049 303.407 -215.587 309.086C-224.635 320.399 -231.112 331.929 -227.852 343.419C-226.042 349.817 -223.328 356.342 -217.368 362.636L-217.239 362.763H-194.635C-194.132 348.429 -196.531 334.122 -197.22 319.78ZM292.86 108.902C321.036 93.1127 362.683 78.1731 369.993 61.054C373.683 52.4086 371.644 43.6682 368.872 35.0273C366.388 27.2771 360.184 19.2059 364.363 11.4467C367.408 5.77205 381.28 1.40411 396.919 -3.07234C415.962 -8.52548 433.813 -14.1052 448.518 -20.1462C450.916 -21.1319 453.257 -22.1357 455.526 -23.1395H404.028C397.968 -19.5584 391.62 -15.9998 383.966 -12.5724C380.993 -11.2385 361.146 -3.36625 354.928 -8.1954C351.998 -10.4743 355.158 -13.2145 357.843 -15.421C361.046 -18.0617 365.555 -20.6255 370.538 -23.1395H325.876C321.539 -19.2283 320.663 -15.2176 320.476 -11.0938C320.232 -5.43718 319.572 0.264654 320.979 5.91674C322.788 13.1695 331.175 20.1962 331.836 27.5032C332.152 31.003 333.918 34.4168 335.857 37.8895C338.097 41.9138 336.618 45.6984 332.539 49.6503C326.91 55.099 321.539 60.5069 317.805 66.0324C314.804 70.4591 311.888 74.8677 305.943 79.1678C302.295 81.813 299.639 84.4672 296.537 87.1395C291.654 91.3356 282.377 95.1881 274.062 99.1084C256.728 107.275 250.567 115.477 247.666 124.339C246.374 128.282 246.36 132.243 247.552 136.191C248.327 138.741 248.37 142.25 258.222 144.09C261.798 144.759 266.407 145.116 270.831 145.446C270.701 140.011 269.524 134.545 270.773 129.11C272.382 122.11 281.214 115.427 292.86 108.902ZM210.515 169.796C209.725 169.145 208.95 168.493 208.102 167.851C186.69 151.379 139.701 137.136 116.551 120.799C91.3912 103.033 96.1877 84.3677 85.575 66.1273C72.2912 43.2884 45.5368 20.5127 16.8438 -1.65254C12.8802 -4.71371 9.60587 -8.10044 2.92805 -10.9672C0.285642 -12.1021 -0.733984 -13.0336 -4.92737 -12.0253C-9.93932 -10.8225 -6.96662 -6.46812 -6.8661 -5.03927C-6.56452 -0.788899 -5.22897 3.45695 -3.60619 7.69376C4.03381 27.6298 22.3296 47.1589 38.6579 66.8237C52.229 83.1559 58.9643 99.8726 80.4338 115.861C101.717 131.71 138.366 146.179 166.484 161.467C171.539 164.211 175.876 166.992 179.711 169.8C197.691 182.985 203.765 196.754 212.382 210.373C217.925 219.136 222.363 228.125 232.544 236.716C233.234 237.3 235.374 240.166 239.481 239.823C243.574 239.484 242.353 234.704 242.439 234.026C242.927 230.345 238.619 220.646 238.619 220.646C236.479 203.744 230.692 186.295 210.515 169.796ZM283.885 169.796C285.608 168.118 287.575 166.504 291.41 164.826C297.815 162.027 305.225 159.595 312.635 156.918C321.065 153.875 332.051 151.279 337.551 147.902C343.08 144.497 348.049 141.065 355.818 137.859C363.171 134.825 374.344 132.252 379.385 129.015C383.808 126.18 394.406 124.235 399.935 121.527C404.042 119.515 405.249 117.29 408.552 115.219C412.472 112.759 414.885 110.404 416.824 107.84C419.006 104.959 424.607 102.278 426.488 99.3842C429.088 95.3825 427.336 91.2995 427.508 87.2752C427.723 82.437 429.993 77.8701 433.726 73.1133C437.489 68.3203 436.958 63.4731 440.332 58.6666C447.585 48.321 448.403 37.9347 450.428 27.5077C450.888 25.1519 450.572 22.76 452.338 20.4268C454.004 18.2112 457.407 16.0589 460.05 13.893C464.401 10.3254 469.973 6.83916 474.554 3.28513C484.349 -4.30224 466.828 -18.5726 463.985 -17.5055C439.916 -8.45313 433.999 2.95053 426.847 13.0339C413.865 31.3285 406.039 49.7634 395.885 68.1304C386.996 84.214 376.311 100.293 357.24 115.992C349.184 122.621 339.792 129.191 328.102 135.576C319.241 140.414 309.332 145.37 294.885 149.593C287.848 151.65 276.661 154.562 263.033 154.137C249.72 153.721 241.764 150.429 236.695 148.132C215.613 138.587 208.174 127.45 198.466 117.2C168.308 85.3625 144.455 53.3672 121.951 21.2497C112.042 7.10594 102.047 -7.13732 83.0332 -20.8832C81.9848 -21.6383 80.8359 -22.3889 79.7301 -23.1395H40.6972C43.7992 -20.8923 46.4416 -18.5862 49.3137 -16.2033C55.532 -11.035 54.498 -5.57283 63.5023 -0.585422C68.3994 2.1321 74.7325 4.74111 77.1739 7.63046C79.1844 10.0179 78.7967 12.4686 79.1557 14.8787C79.7732 18.9663 80.0604 23.1217 83.4783 27.1596C87.0398 31.3692 93.0714 35.3528 99.0599 39.4268C103.67 42.5604 107.662 45.7346 112.76 48.8319C116.853 51.3143 122.181 53.7244 124.551 56.3198C127.437 59.4759 126.791 62.7587 126.891 65.9555C127.021 70.0793 127.724 74.1985 128.887 78.3132C131.085 86.0769 138.136 93.8587 137.705 101.641C137.504 105.235 135.853 108.825 137.202 112.416C138.438 115.717 142.573 118.841 147.657 121.956C159.462 129.2 169.672 136.824 189.921 143.253C204.483 147.879 221.558 152.527 230.879 157.782C237.614 161.575 240.673 165.735 243.861 169.796C244.708 170.894 245.57 171.984 246.503 173.06C250.381 177.505 244.478 239.099 269.581 239.099C294.684 239.099 285.235 210.527 285.45 204.323C285.823 193.892 268.935 183.37 280.639 172.993C281.86 171.885 282.822 170.831 283.885 169.796ZM-80.6524 169.827C-80.3508 171.062 -80.3508 172.296 -80.8247 173.16C-83.7831 178.617 -81.9449 184.582 -90.4753 189.822C-98.6179 194.823 -98.9626 200.086 -104.75 205.241C-108.57 208.641 -118.953 210.328 -127.067 213.172C-137.119 216.69 -140.293 221.569 -146.598 225.448C-159.293 233.262 -153.347 242.549 -151.121 250.675C-150.174 254.161 -144.602 257.543 -139.819 260.858C-133.429 265.284 -131.332 269.887 -125.042 274.296C-120.475 277.488 -114.386 280.744 -108.297 283.828C-101.835 287.092 -98.1009 290.384 -93.2469 293.766C-83.74 300.391 -86.7845 307.123 -86.4973 313.983C-86.167 321.358 -99.4939 328.439 -99.4939 335.845C-99.4939 369.708 -124.783 359.186 -117.991 346.86C-116.698 344.513 -116.023 341.963 -116.124 339.621C-116.21 337.428 -113.769 335.425 -112.39 333.308C-111.054 331.251 -111.256 329.04 -110.595 327.005C-109.791 324.536 -106.89 322.176 -106.89 319.725C-106.89 314.874 -103.256 309.032 -108.943 304.447C-114.027 300.345 -114.76 296.204 -120.159 292.062C-131.806 291.56 -133.572 297.411 -134.592 298.894C-135.554 300.278 -137.565 301.598 -138.355 302.954C-139.087 304.22 -138.326 305.649 -138.958 306.848C-141.672 311.939 -143.927 317.356 -143.941 322.606C-143.941 325.622 -146.756 328.439 -147.632 331.396C-148.737 335.167 -149.053 339.074 -150.82 342.84C-152.557 346.566 -150.576 350.436 -152.615 354.113C-154.18 356.916 -153.347 359.896 -153.218 362.763H-174.874C-181.796 348.727 -185.401 334.276 -179.283 320.254C-172.62 304.962 -157.397 289.715 -155.616 274.319C-155.214 270.832 -152.744 265.298 -161.662 262.146C-169.475 259.388 -176.181 263.06 -178.996 264.715C-191.188 271.895 -193.816 279.677 -204.975 286.943C-229.575 302.963 -247.67 319.314 -249.666 336.225C-250.283 341.411 -249.766 346.702 -253.773 351.834C-254.821 353.177 -257.837 358.001 -268.105 356.324C-278.459 354.637 -277.612 348.587 -277.928 346.218C-278.56 341.633 -276.277 337.061 -272.744 332.544C-262.864 319.929 -247.67 307.485 -234.616 295.01C-223.472 284.366 -213.16 273.686 -201.169 263.082C-190.542 253.686 -181.581 244.073 -179.642 234.397C-178.307 227.786 -190.571 222.22 -193.486 215.772C-196.904 208.225 -185.128 200.837 -185.128 193.317C-185.128 180.508 -150.748 181.141 -151.423 183.686C-152.5 187.738 -159.307 191.522 -164.175 195.406C-169.015 199.259 -172.878 203.536 -169.503 207.52C-167.349 210.061 -160.987 211.716 -152.457 209.044C-141.715 205.675 -137.981 200.968 -133.917 197.075C-129.91 193.232 -126.765 189.347 -122.256 185.531C-115.794 180.064 -106.488 174.86 -94.999 169.827C-91.8108 168.43 -88.4935 167.042 -84.9894 165.672C-83.3666 164.361 -81.2699 167.096 -80.6381 169.827H-80.6524V169.827ZM310.409 238.503C310.409 238.503 270.026 270.828 249.347 285.578C247.063 287.21 232.817 298.279 219.232 293.762C211.894 291.325 210.601 287.658 208.433 284.881C204.972 280.477 202.344 276.041 199.184 271.628C193.382 263.512 184.579 255.585 175.948 247.591C166.7 239.027 161.415 230.363 157.954 221.614C154.507 212.892 152.54 204.102 145.187 195.474C139.615 188.95 130.008 182.682 119.984 176.415C116.451 174.209 113.091 172.002 109.816 169.791C94.3065 159.333 81.7981 148.802 73.1816 137.918C71.846 136.231 70.5535 134.545 69.2611 132.858C81.8268 132.546 83.0619 133.134 86.6952 135.481C89.7684 137.47 92.698 139.464 95.2112 141.458C97.753 143.471 98.4136 145.514 99.9215 147.576C101.444 149.643 106.657 151.46 109.644 153.441C118.117 159.03 126.906 164.587 139.041 169.791C144.34 172.066 150.271 174.277 157.107 176.393C173.133 181.353 166.369 187.222 174.426 192.671C180.587 196.844 186.087 200.602 187.839 204.997C192.291 216.174 192.779 227.311 203.995 238.245C209.438 243.553 211.448 248.984 217.853 254.238C220.898 256.734 221.544 259.379 223.655 261.911C225.407 264.018 228.739 266.139 230.132 268.237C240.644 269.101 248.7 260.347 251.343 258.61C256.484 255.228 263.119 251.9 268.849 248.672C274.234 245.642 282.535 242.866 287.633 239.832C290.089 238.376 292.085 236.603 298.159 235.636C310.208 233.719 310.208 236.694 310.409 238.503ZM526.742 336.342C523.712 345.264 531.194 353.905 532.099 362.763H518.556C512.051 360.904 513.214 358.282 513.113 355.379C512.955 350.848 511.017 346.268 508.532 341.768C502.055 330.103 501.366 318.242 485.957 306.879C480.414 302.801 469.04 299.749 459.834 296.077C447.47 291.148 453.343 284.343 456.287 279.085C461.256 270.204 466.038 261.518 467.115 252.565C468.221 243.327 477.972 234.388 482.812 225.231C487.135 217.052 488.599 208.827 493.324 200.656C497.991 192.571 501.625 184.487 507.398 176.424C506.378 176.393 512.539 173.463 522.132 178.523C531.309 183.361 526.728 189.081 524.128 193.969C519.806 202.099 517.666 210.274 512.912 218.39C507.154 228.243 498.824 238.014 493.525 247.88C488.542 257.172 482.525 266.745 482.927 276.109C482.97 277.163 481.936 279.971 489.547 278.94C493.338 278.429 496.139 277.05 498.307 276.263C502.472 274.748 506.22 273.179 509.853 271.606C520.136 267.152 529.212 262.58 536.048 257.864V274.328C533.046 275.481 529.901 276.62 526.455 277.733C513.688 281.861 500.749 286.021 496.756 290.986C493.252 295.367 498.954 299.337 505.775 303.429C514.578 308.706 522.161 314.051 525.995 319.603C529.901 325.197 528.652 330.727 526.742 336.342ZM-40.2552 284.85C-50.9684 277.918 -61.0211 271.054 -69.7238 263.987C-81.9018 254.098 -88.6802 244.616 -88.7232 234.379L-85.9085 232.887C-82.9502 232.443 -80.4801 229.92 -80.3365 228.998C-80.1067 227.524 -80.2934 226.041 -80.279 224.567C-80.2503 221.153 -78.7711 217.409 -83.3379 214.153C-89.4844 214.018 -94.5538 213.846 -98.144 215.053C-100.93 215.989 -101.591 217.4 -102.668 218.467C-105.928 221.691 -106.215 224.951 -108.929 228.17C-111.083 230.716 -112.074 233.257 -114.401 235.812C-115.65 237.196 -118.68 238.525 -119.527 239.904C-120.346 241.234 -119.542 242.671 -119.542 244.01C-119.527 246.718 -118.048 249.327 -116.942 252.027C-115.521 255.54 -109.001 259.135 -105.712 262.635C-103.845 264.611 -99.5514 266.288 -97.0238 268.21C-94.6974 269.973 -92.931 271.768 -90.8487 273.545C-87.3733 276.503 -81.5715 279.098 -76.1431 281.892C-70.6285 284.723 -68.1441 288.01 -66.4064 291.053C-64.5251 294.345 -60.5615 297.673 -60.6333 300.978C-60.7482 306.811 -60.3174 312.608 -62.2705 318.414C-63.5055 322.063 -67.8712 325.753 -69.9392 329.388C-71.088 331.414 -69.5945 333.44 -70.5854 335.461C-71.3322 337.003 -71.7486 338.45 -71.8492 340.01C-73.8166 369.541 -39.5515 358.236 -39.5515 347.244C-39.5515 343.107 -39.1207 339.019 -38.6755 334.886C-38.1442 329.813 -39.135 324.961 -34.0369 319.96C-28.0053 314.051 -26.4687 308.778 -28.7521 302.746C-31.0786 296.701 -31.2653 290.674 -40.2552 284.85ZM25.6613 283.724C30.8456 287.255 37.107 290.75 40.3813 294.395C43.2247 297.574 43.4114 300.82 41.9035 304.035C40.8264 306.328 40.2233 309.701 34.2061 311.717C29.2947 313.363 27.0256 311.681 25.4459 310.433C21.0946 306.992 19.3712 303.384 16.3124 299.884C6.6044 288.788 -11.2031 278.18 -25.4491 267.333C-44.2762 253.004 -56.1384 238.34 -60.2599 223.486C-63.3906 212.236 -64.0799 200.873 -63.2757 189.61C-63.0459 186.458 -66.9952 172.87 -38.0724 174.385C-33.5199 174.625 -43.0843 193.996 -31.5956 202.894C-20.0494 211.834 -15.1523 220.28 -13.8742 229.654C-12.1796 242.161 -3.03174 254.482 6.73368 266.89C11.2143 272.591 17.5618 278.207 25.6613 283.724ZM270.73 322.045C269.481 327.475 270.658 332.942 270.788 338.382C266.364 338.052 261.755 337.69 258.179 337.025C248.327 335.185 248.27 331.676 247.509 329.126C246.317 325.183 246.331 321.217 247.623 317.275C250.539 308.412 256.685 300.214 274.019 292.044C282.334 288.123 291.611 284.271 296.494 280.075C299.61 277.402 302.252 274.748 305.9 272.103C311.845 267.803 314.761 263.394 317.762 258.968C321.51 253.442 326.881 248.034 332.496 242.59C336.575 238.638 338.054 234.854 335.814 230.829C333.875 227.357 332.109 223.943 331.793 220.443C331.146 213.136 322.76 206.109 320.936 198.856C319.528 193.204 320.175 187.503 320.419 181.846C320.606 177.718 321.482 173.707 325.833 169.8C327.772 168.041 330.414 166.305 333.99 164.582C343.167 160.183 354.727 156.122 368.212 152.265C383.219 147.979 395.297 143.674 398.714 138.298L396.302 136.76C400.682 136.525 405.809 136.227 410.275 136.53C426.316 137.624 420.213 143.593 417.513 145.976C409.169 153.35 390.845 160.092 376.283 166.961C374.301 167.897 372.334 168.842 370.452 169.791C365.455 172.305 360.96 174.869 357.757 177.51C355.072 179.721 351.912 182.461 354.842 184.735C361.06 189.564 380.907 181.692 383.88 180.358C391.534 176.931 397.882 173.372 403.956 169.791C409.528 166.499 414.842 163.185 420.687 159.929C430.481 154.467 442.128 149.028 446.565 143.217C451.161 137.185 448.532 131.013 447.527 124.945C446.752 120.27 443.449 114.423 450.916 109.902C456.819 106.325 464.028 113.374 464.961 114.261C472.415 121.319 477.182 128.563 480.6 135.752C483.76 142.39 485.325 149.177 478.992 155.751C474.296 160.621 465.622 165.301 455.454 169.787C453.171 170.795 450.845 171.794 448.446 172.78C433.726 178.821 415.89 184.401 396.848 189.854C381.209 194.33 367.336 198.698 364.291 204.373C360.127 212.137 366.316 220.208 368.801 227.953C371.572 236.594 373.626 245.335 369.921 253.98C362.611 271.095 320.965 286.034 292.788 301.829C281.171 308.362 272.324 315.045 270.73 322.045ZM417.57 338.947C420.27 336.559 426.374 330.591 410.332 329.501C405.866 329.198 400.739 329.492 396.359 329.732L398.772 331.269C395.34 336.645 383.262 340.946 368.269 345.237C354.77 349.094 343.21 353.154 334.047 357.554C330.457 359.272 327.829 361.013 325.89 362.772H370.524C372.405 361.822 374.358 360.877 376.355 359.941C390.902 353.064 409.212 346.322 417.57 338.947ZM479.006 348.727C485.339 342.148 483.774 335.366 480.615 328.728C477.197 321.538 472.429 314.29 464.976 307.232C464.042 306.346 456.847 299.296 450.931 302.873C443.463 307.395 446.766 313.241 447.542 317.917C448.547 323.985 451.175 330.157 446.579 336.189C442.156 341.999 430.495 347.434 420.701 352.901C414.871 356.156 409.543 359.471 403.971 362.763H455.454C465.636 358.277 474.31 353.602 479.006 348.727ZM30.3286 336.315C35.1539 338.576 39.9217 340.842 44.5747 343.116C53.8518 347.651 62.6694 352.236 70.5392 356.893C73.8134 358.833 76.8436 360.796 79.7445 362.763H40.7116C36.073 359.389 30.4004 356.147 21.3531 352.955C14.3019 350.468 6.96344 348.013 3.80404 345.155C0.745169 342.379 0.97496 339.476 0.903155 336.645C0.802629 332.553 -1.98341 328.375 0.38614 324.306C1.47757 322.438 8.70109 325.694 12.4493 326.928C15.3502 327.887 17.9352 328.968 19.9026 330.048C21.7982 331.084 21.8701 332.223 23.6508 333.263C25.4316 334.294 28.1889 335.312 30.3286 336.315ZM109.644 346.412C106.642 344.432 101.444 342.614 99.9215 340.548C98.3993 338.486 97.753 336.446 95.2112 334.434C92.698 332.44 89.7684 330.446 86.6952 328.457C83.0619 326.11 81.8268 325.522 69.2611 325.834C70.5535 327.521 71.846 329.207 73.1816 330.894C81.7981 341.773 94.3065 352.308 109.788 362.767H139.055C126.891 357.554 118.102 352.001 109.644 346.412ZM116.551 313.761C139.687 330.103 186.69 344.346 208.102 360.814C208.935 361.46 209.711 362.111 210.515 362.758H179.739C175.905 359.95 171.568 357.169 166.513 354.425C138.394 339.141 101.745 324.667 80.4625 308.819C58.993 292.826 52.2577 276.114 38.6867 259.781C22.344 240.117 4.06256 220.588 -3.57744 200.652C-5.20022 196.415 -6.53581 192.169 -6.83739 187.919C-6.93792 186.49 -9.91062 182.135 -4.89866 180.933C-0.705278 179.924 0.314348 180.856 2.95675 181.991C9.62021 184.857 12.9089 188.244 16.8725 191.305C45.5656 213.471 72.3199 236.246 85.6037 259.085C96.1877 277.33 91.3912 296 116.551 313.761ZM283.913 362.731H243.832C240.687 358.67 237.628 354.511 230.893 350.717C221.558 345.463 204.498 340.814 189.936 336.189C169.701 329.759 159.491 322.135 147.672 314.892C142.588 311.776 138.452 308.652 137.217 305.351C135.867 301.761 137.533 298.17 137.719 294.576C138.15 286.794 131.099 279.012 128.902 271.248C127.739 267.134 127.049 263.014 126.906 258.891C126.805 255.689 127.451 252.411 124.565 249.255C122.195 246.664 116.867 244.25 112.775 241.767C107.676 238.67 103.67 235.496 99.0599 232.362C93.0714 228.288 87.0398 224.304 83.4783 220.095C80.0748 216.057 79.7732 211.906 79.1557 207.814C78.7967 205.399 79.1844 202.949 77.1739 200.566C74.7469 197.676 68.4137 195.067 63.5023 192.35C54.498 187.362 55.532 181.9 49.3137 176.736C46.4416 174.354 43.7992 172.047 40.6972 169.8C36.0586 166.427 30.3861 163.185 21.3387 159.993C14.2875 157.506 6.94906 155.051 3.78967 152.193C0.730795 149.417 0.960585 146.514 0.88878 143.683C0.788254 139.591 -1.99774 135.413 0.371809 131.343C1.46324 129.476 8.68676 132.732 12.435 133.966C15.3359 134.925 17.9208 136.005 19.8883 137.086C21.7839 138.126 21.8557 139.261 23.6364 140.301C25.4172 141.332 28.1601 142.349 30.3143 143.353C35.1395 145.614 39.9074 147.879 44.5603 150.154C53.8374 154.689 62.655 159.274 70.5248 163.931C73.7991 165.875 76.8292 167.833 79.7301 169.8C80.8359 170.551 81.9848 171.301 83.0332 172.057C102.047 185.802 112.042 200.046 121.951 214.189C144.455 246.307 168.323 278.298 198.466 310.139C208.174 320.39 215.613 331.527 236.695 341.072C241.764 343.369 249.72 346.661 263.033 347.072C276.661 347.497 287.848 344.585 294.885 342.528C309.332 338.305 319.241 333.349 328.102 328.511C339.792 322.126 349.184 315.556 357.24 308.928C376.311 293.228 386.996 277.145 395.885 261.066C406.039 242.699 413.865 224.259 426.847 205.969C433.999 195.886 439.93 184.482 463.985 175.43C466.828 174.363 484.349 188.633 474.554 196.22C469.973 199.774 464.401 203.261 460.05 206.828C457.407 208.994 454.004 211.146 452.324 213.362C450.572 215.695 450.873 218.087 450.414 220.443C448.374 230.87 447.57 241.256 440.318 251.602C436.943 256.408 437.475 261.251 433.712 266.049C429.978 270.805 427.695 275.377 427.494 280.21C427.321 284.235 429.073 288.318 426.474 292.319C424.593 295.213 418.992 297.895 416.809 300.775C414.87 303.339 412.458 305.695 408.537 308.154C405.234 310.225 404.028 312.45 399.921 314.462C394.392 317.171 383.793 319.11 379.37 321.95C374.315 325.187 363.157 327.76 355.804 330.794C348.035 334 343.066 337.437 337.537 340.841C332.051 344.219 321.051 346.819 312.621 349.858C305.211 352.535 297.8 354.967 291.395 357.766C287.604 359.435 285.637 361.053 283.913 362.731ZM447.513 96.3411C447.513 96.3411 442.242 93.9718 444.899 85.5389C447.57 77.1059 460.567 56.2158 464.042 50.4823C467.518 44.7489 462.305 26.0111 469.27 21.5979C476.235 17.1893 500.648 6.07952 499.729 2.63853C498.824 -0.802464 518.571 3.6333 509.882 12.333C501.194 21.0327 485.296 38.5044 492.06 51.3098C498.824 64.1197 477.714 72.7832 473.362 78.5077C469.025 84.2276 461.199 102.947 447.513 96.3411Z" fill="#262626"/>
</g>
</svg>
